<?xml version="1.0" encoding="UTF-8"?>
<!DOCTYPE svg PUBLIC "-//W3C//DTD SVG 1.1//EN"
  "http://www.w3.org/Graphics/SVG/1.1/DTD/svg11.dtd">
<svg xmlns="http://www.w3.org/2000/svg" xmlns:xlink="http://www.w3.org/1999/xlink"   viewBox="0.00 0.00 300.00 200.00">
<!-- Created by OpenEye Scientific Software -->
<!-- Creation Date Tue Jun  5 16:25:04 2018 -->
<rect width="300.00" height="200.00" fill="white" />
<line x1="115.40" y1="68.82" x2="133.33" y2="79.11" stroke="black" stroke-width="2" stroke-linejoin="round" stroke-linecap="round" />
<line x1="120.41" y1="66.73" x2="132.60" y2="73.73" stroke="black" stroke-width="2" stroke-linejoin="round" stroke-linecap="round" />
<line x1="115.40" y1="68.82" x2="115.40" y2="48.05" stroke="black" stroke-width="2" stroke-linejoin="round" stroke-linecap="round" />
<line x1="115.40" y1="48.05" x2="133.33" y2="37.56" stroke="black" stroke-width="2" stroke-linejoin="round" stroke-linecap="round" />
<line x1="120.45" y1="50.09" x2="132.64" y2="42.95" stroke="black" stroke-width="2" stroke-linejoin="round" stroke-linecap="round" />
<line x1="133.33" y1="37.56" x2="151.26" y2="48.05" stroke="black" stroke-width="2" stroke-linejoin="round" stroke-linecap="round" />
<line x1="160.20" y1="42.82" x2="151.26" y2="48.05" stroke="black" stroke-width="2" stroke-linejoin="round" stroke-linecap="round" />
<line x1="160.20" y1="42.82" x2="164.27" y2="40.43" stroke="blue" stroke-width="2" stroke-linejoin="round" stroke-linecap="round" />
<line x1="162.38" y1="46.53" x2="156.30" y2="50.09" stroke="black" stroke-width="2" stroke-linejoin="round" stroke-linecap="round" />
<line x1="162.38" y1="46.53" x2="168.45" y2="42.97" stroke="blue" stroke-width="2" stroke-linejoin="round" stroke-linecap="round" />
<line x1="151.26" y1="48.05" x2="151.29" y2="68.82" stroke="black" stroke-width="2" stroke-linejoin="round" stroke-linecap="round" />
<line x1="151.29" y1="68.82" x2="133.33" y2="79.11" stroke="black" stroke-width="2" stroke-linejoin="round" stroke-linecap="round" />
<line x1="151.29" y1="68.82" x2="169.19" y2="79.13" stroke="black" stroke-width="2" stroke-linejoin="round" stroke-linecap="round" />
<line x1="156.30" y1="66.74" x2="168.48" y2="73.75" stroke="black" stroke-width="2" stroke-linejoin="round" stroke-linecap="round" />
<line x1="178.19" y1="73.95" x2="169.19" y2="79.13" stroke="black" stroke-width="2" stroke-linejoin="round" stroke-linecap="round" />
<line x1="178.19" y1="73.95" x2="182.30" y2="71.59" stroke="blue" stroke-width="2" stroke-linejoin="round" stroke-linecap="round" />
<line x1="187.17" y1="58.39" x2="187.18" y2="63.14" stroke="blue" stroke-width="2" stroke-linejoin="round" stroke-linecap="round" />
<line x1="187.17" y1="58.39" x2="187.16" y2="48.00" stroke="black" stroke-width="2" stroke-linejoin="round" stroke-linecap="round" />
<line x1="182.87" y1="58.39" x2="182.88" y2="65.46" stroke="blue" stroke-width="2" stroke-linejoin="round" stroke-linecap="round" />
<line x1="182.87" y1="58.39" x2="182.86" y2="51.33" stroke="black" stroke-width="2" stroke-linejoin="round" stroke-linecap="round" />
<line x1="178.15" y1="42.79" x2="187.16" y2="48.00" stroke="black" stroke-width="2" stroke-linejoin="round" stroke-linecap="round" />
<line x1="178.15" y1="42.79" x2="174.02" y2="40.41" stroke="blue" stroke-width="2" stroke-linejoin="round" stroke-linecap="round" />
<line x1="169.19" y1="89.46" x2="169.19" y2="79.13" stroke="black" stroke-width="2" stroke-linejoin="round" stroke-linecap="round" />
<line x1="169.19" y1="89.46" x2="169.19" y2="94.15" stroke="blue" stroke-width="2" stroke-linejoin="round" stroke-linecap="round" />
<line x1="160.25" y1="104.95" x2="164.31" y2="102.61" stroke="blue" stroke-width="2" stroke-linejoin="round" stroke-linecap="round" />
<line x1="160.25" y1="104.95" x2="151.30" y2="110.12" stroke="black" stroke-width="2" stroke-linejoin="round" stroke-linecap="round" />
<line x1="151.30" y1="110.12" x2="151.36" y2="130.88" stroke="black" stroke-width="2" stroke-linejoin="round" stroke-linecap="round" />
<line x1="147.00" y1="113.45" x2="147.04" y2="127.57" stroke="black" stroke-width="2" stroke-linejoin="round" stroke-linecap="round" />
<line x1="151.30" y1="110.12" x2="133.35" y2="99.68" stroke="black" stroke-width="2" stroke-linejoin="round" stroke-linecap="round" />
<line x1="133.35" y1="99.68" x2="115.45" y2="110.01" stroke="black" stroke-width="2" stroke-linejoin="round" stroke-linecap="round" />
<line x1="132.64" y1="105.06" x2="120.47" y2="112.08" stroke="black" stroke-width="2" stroke-linejoin="round" stroke-linecap="round" />
<line x1="115.45" y1="110.01" x2="115.33" y2="130.66" stroke="black" stroke-width="2" stroke-linejoin="round" stroke-linecap="round" />
<line x1="115.33" y1="130.66" x2="133.28" y2="141.10" stroke="black" stroke-width="2" stroke-linejoin="round" stroke-linecap="round" />
<line x1="120.37" y1="128.61" x2="132.58" y2="135.71" stroke="black" stroke-width="2" stroke-linejoin="round" stroke-linecap="round" />
<line x1="133.28" y1="141.10" x2="151.36" y2="130.88" stroke="black" stroke-width="2" stroke-linejoin="round" stroke-linecap="round" />
<line x1="133.28" y1="141.10" x2="133.16" y2="161.76" stroke="black" stroke-width="2" stroke-linejoin="round" stroke-linecap="round" />
<line x1="122.83" y1="161.70" x2="133.16" y2="161.76" stroke="black" stroke-width="2" stroke-linejoin="round" stroke-linecap="round" />
<line x1="122.83" y1="161.70" x2="117.78" y2="161.67" stroke="#00cd00" stroke-width="2" stroke-linejoin="round" stroke-linecap="round" />
<line x1="143.49" y1="161.82" x2="133.16" y2="161.76" stroke="black" stroke-width="2" stroke-linejoin="round" stroke-linecap="round" />
<line x1="143.49" y1="161.82" x2="148.54" y2="161.85" stroke="#00cd00" stroke-width="2" stroke-linejoin="round" stroke-linecap="round" />
<line x1="133.10" y1="172.09" x2="133.16" y2="161.76" stroke="black" stroke-width="2" stroke-linejoin="round" stroke-linecap="round" />
<line x1="133.10" y1="172.09" x2="133.07" y2="177.14" stroke="#00cd00" stroke-width="2" stroke-linejoin="round" stroke-linecap="round" />
<text x="187.19" y="71.42" fill="blue" font-family="Arial" font-size="8" font-style="normal" font-weight="normal" text-anchor="middle">  N </text>
<text x="169.14" y="40.22" fill="blue" font-family="Arial" font-size="8" font-style="normal" font-weight="normal" text-anchor="middle">  N </text>
<text x="169.19" y="102.43" fill="blue" font-family="Arial" font-size="8" font-style="normal" font-weight="normal" text-anchor="middle">  N </text>
<text x="174.79" y="102.43" fill="blue" font-family="Arial" font-size="8" font-style="normal" font-weight="normal" text-anchor="middle">  H </text>
<text x="112.50" y="164.28" fill="#00cd00" font-family="Arial" font-size="8" font-style="normal" font-weight="normal" text-anchor="middle">  F </text>
<text x="153.82" y="164.52" fill="#00cd00" font-family="Arial" font-size="8" font-style="normal" font-weight="normal" text-anchor="middle">  F </text>
<text x="133.04" y="185.06" fill="#00cd00" font-family="Arial" font-size="8" font-style="normal" font-weight="normal" text-anchor="middle">  F </text>
<text x="150.00" y="21.67" fill="black" font-family="Arial" font-size="20" font-style="normal" font-weight="normal" text-anchor="middle">  SM02 </text>
</svg>
