<?xml version="1.0" encoding="UTF-8"?>
<!DOCTYPE svg PUBLIC "-//W3C//DTD SVG 1.1//EN"
  "http://www.w3.org/Graphics/SVG/1.1/DTD/svg11.dtd">
<svg xmlns="http://www.w3.org/2000/svg" xmlns:xlink="http://www.w3.org/1999/xlink"   viewBox="0.00 0.00 300.00 200.00">
<!-- Created by OpenEye Scientific Software -->
<!-- Creation Date Tue Jun  5 16:25:04 2018 -->
<rect width="300.00" height="200.00" fill="white" />
<line x1="279.08" y1="143.32" x2="251.27" y2="152.41" stroke="black" stroke-width="2" stroke-linejoin="round" stroke-linecap="round" />
<line x1="272.87" y1="139.40" x2="253.96" y2="145.58" stroke="black" stroke-width="2" stroke-linejoin="round" stroke-linecap="round" />
<line x1="279.08" y1="143.32" x2="285.00" y2="114.83" stroke="black" stroke-width="2" stroke-linejoin="round" stroke-linecap="round" />
<line x1="285.00" y1="114.83" x2="263.40" y2="95.33" stroke="black" stroke-width="2" stroke-linejoin="round" stroke-linecap="round" />
<line x1="277.75" y1="115.91" x2="263.07" y2="102.65" stroke="black" stroke-width="2" stroke-linejoin="round" stroke-linecap="round" />
<line x1="263.40" y1="95.33" x2="235.60" y2="104.41" stroke="black" stroke-width="2" stroke-linejoin="round" stroke-linecap="round" />
<line x1="235.60" y1="104.41" x2="229.39" y2="133.00" stroke="black" stroke-width="2" stroke-linejoin="round" stroke-linecap="round" />
<line x1="240.13" y1="110.19" x2="235.91" y2="129.62" stroke="black" stroke-width="2" stroke-linejoin="round" stroke-linecap="round" />
<line x1="229.39" y1="133.00" x2="251.27" y2="152.41" stroke="black" stroke-width="2" stroke-linejoin="round" stroke-linecap="round" />
<line x1="235.60" y1="104.41" x2="214.00" y2="84.91" stroke="black" stroke-width="2" stroke-linejoin="round" stroke-linecap="round" />
<line x1="214.00" y1="84.91" x2="186.31" y2="93.87" stroke="black" stroke-width="2" stroke-linejoin="round" stroke-linecap="round" />
<line x1="174.49" y1="85.27" x2="186.31" y2="93.87" stroke="black" stroke-width="2" stroke-linejoin="round" stroke-linecap="round" />
<line x1="174.49" y1="85.27" x2="168.70" y2="81.06" stroke="#ebc80a" stroke-width="2" stroke-linejoin="round" stroke-linecap="round" />
<line x1="181.77" y1="107.71" x2="186.31" y2="93.87" stroke="black" stroke-width="2" stroke-linejoin="round" stroke-linecap="round" />
<line x1="181.77" y1="107.71" x2="179.56" y2="114.47" stroke="blue" stroke-width="2" stroke-linejoin="round" stroke-linecap="round" />
<line x1="176.40" y1="105.95" x2="179.48" y2="96.54" stroke="black" stroke-width="2" stroke-linejoin="round" stroke-linecap="round" />
<line x1="176.40" y1="105.95" x2="173.31" y2="115.37" stroke="blue" stroke-width="2" stroke-linejoin="round" stroke-linecap="round" />
<line x1="169.78" y1="121.56" x2="155.55" y2="121.56" stroke="blue" stroke-width="2" stroke-linejoin="round" stroke-linecap="round" />
<line x1="143.63" y1="107.71" x2="145.81" y2="114.46" stroke="blue" stroke-width="2" stroke-linejoin="round" stroke-linecap="round" />
<line x1="143.63" y1="107.71" x2="139.17" y2="93.87" stroke="black" stroke-width="2" stroke-linejoin="round" stroke-linecap="round" />
<line x1="149.02" y1="105.98" x2="152.05" y2="115.40" stroke="blue" stroke-width="2" stroke-linejoin="round" stroke-linecap="round" />
<line x1="149.02" y1="105.98" x2="145.99" y2="96.56" stroke="black" stroke-width="2" stroke-linejoin="round" stroke-linecap="round" />
<line x1="150.92" y1="85.27" x2="139.17" y2="93.87" stroke="black" stroke-width="2" stroke-linejoin="round" stroke-linecap="round" />
<line x1="150.92" y1="85.27" x2="156.65" y2="81.08" stroke="#ebc80a" stroke-width="2" stroke-linejoin="round" stroke-linecap="round" />
<line x1="125.33" y1="89.38" x2="139.17" y2="93.87" stroke="black" stroke-width="2" stroke-linejoin="round" stroke-linecap="round" />
<line x1="125.33" y1="89.38" x2="118.59" y2="87.19" stroke="blue" stroke-width="2" stroke-linejoin="round" stroke-linecap="round" />
<line x1="100.69" y1="94.63" x2="105.95" y2="89.88" stroke="blue" stroke-width="2" stroke-linejoin="round" stroke-linecap="round" />
<line x1="100.69" y1="94.63" x2="89.88" y2="104.37" stroke="black" stroke-width="2" stroke-linejoin="round" stroke-linecap="round" />
<line x1="90.14" y1="119.19" x2="87.11" y2="104.95" stroke="black" stroke-width="2" stroke-linejoin="round" stroke-linecap="round" />
<line x1="90.14" y1="119.19" x2="91.41" y2="125.13" stroke="red" stroke-width="2" stroke-linejoin="round" stroke-linecap="round" />
<line x1="95.68" y1="118.01" x2="92.64" y2="103.78" stroke="black" stroke-width="2" stroke-linejoin="round" stroke-linecap="round" />
<line x1="95.68" y1="118.01" x2="96.94" y2="123.95" stroke="red" stroke-width="2" stroke-linejoin="round" stroke-linecap="round" />
<line x1="89.88" y1="104.37" x2="62.20" y2="95.38" stroke="black" stroke-width="2" stroke-linejoin="round" stroke-linecap="round" />
<line x1="57.66" y1="81.49" x2="62.20" y2="95.38" stroke="black" stroke-width="2" stroke-linejoin="round" stroke-linecap="round" />
<line x1="57.66" y1="81.49" x2="55.44" y2="74.68" stroke="#ebc80a" stroke-width="2" stroke-linejoin="round" stroke-linecap="round" />
<line x1="62.20" y1="95.38" x2="38.61" y2="112.50" stroke="black" stroke-width="2" stroke-linejoin="round" stroke-linecap="round" />
<line x1="55.10" y1="93.55" x2="39.06" y2="105.19" stroke="black" stroke-width="2" stroke-linejoin="round" stroke-linecap="round" />
<line x1="38.61" y1="112.50" x2="15.00" y2="95.42" stroke="black" stroke-width="2" stroke-linejoin="round" stroke-linecap="round" />
<line x1="15.00" y1="95.42" x2="24.02" y2="67.75" stroke="black" stroke-width="2" stroke-linejoin="round" stroke-linecap="round" />
<line x1="21.82" y1="92.74" x2="27.95" y2="73.93" stroke="black" stroke-width="2" stroke-linejoin="round" stroke-linecap="round" />
<line x1="38.57" y1="67.67" x2="24.02" y2="67.75" stroke="black" stroke-width="2" stroke-linejoin="round" stroke-linecap="round" />
<line x1="38.57" y1="67.67" x2="45.67" y2="67.63" stroke="#ebc80a" stroke-width="2" stroke-linejoin="round" stroke-linecap="round" />
<text x="177.24" y="125.52" fill="blue" font-family="Arial" font-size="12" font-style="normal" font-weight="normal" text-anchor="middle">  N </text>
<text x="148.09" y="125.52" fill="blue" font-family="Arial" font-size="12" font-style="normal" font-weight="normal" text-anchor="middle">  N </text>
<text x="162.67" y="80.63" fill="#ebc80a" font-family="Arial" font-size="12" font-style="normal" font-weight="normal" text-anchor="middle">  S </text>
<text x="111.50" y="88.85" fill="blue" font-family="Arial" font-size="12" font-style="normal" font-weight="normal" text-anchor="middle">  N </text>
<text x="111.50" y="79.25" fill="blue" font-family="Arial" font-size="12" font-style="normal" font-weight="normal" text-anchor="middle">  H </text>
<text x="95.94" y="136.79" fill="red" font-family="Arial" font-size="12" font-style="normal" font-weight="normal" text-anchor="middle">  O </text>
<text x="53.13" y="71.55" fill="#ebc80a" font-family="Arial" font-size="12" font-style="normal" font-weight="normal" text-anchor="middle">  S </text>
<text x="150.00" y="21.67" fill="black" font-family="Arial" font-size="20" font-style="normal" font-weight="normal" text-anchor="middle">  SM03 </text>
</svg>
