<?xml version="1.0" encoding="UTF-8"?>
<!DOCTYPE svg PUBLIC "-//W3C//DTD SVG 1.1//EN"
  "http://www.w3.org/Graphics/SVG/1.1/DTD/svg11.dtd">
<svg xmlns="http://www.w3.org/2000/svg" xmlns:xlink="http://www.w3.org/1999/xlink"   viewBox="0.00 0.00 300.00 200.00">
<!-- Created by OpenEye Scientific Software -->
<!-- Creation Date Tue Jun  5 16:25:04 2018 -->
<rect width="300.00" height="200.00" fill="white" />
<line x1="108.15" y1="66.72" x2="124.87" y2="76.31" stroke="black" stroke-width="2" stroke-linejoin="round" stroke-linecap="round" />
<line x1="112.86" y1="64.72" x2="124.23" y2="71.24" stroke="black" stroke-width="2" stroke-linejoin="round" stroke-linecap="round" />
<line x1="108.15" y1="66.72" x2="108.15" y2="47.35" stroke="black" stroke-width="2" stroke-linejoin="round" stroke-linecap="round" />
<line x1="108.15" y1="47.35" x2="124.87" y2="37.56" stroke="black" stroke-width="2" stroke-linejoin="round" stroke-linecap="round" />
<line x1="112.89" y1="49.30" x2="124.26" y2="42.65" stroke="black" stroke-width="2" stroke-linejoin="round" stroke-linecap="round" />
<line x1="124.87" y1="37.56" x2="141.60" y2="47.35" stroke="black" stroke-width="2" stroke-linejoin="round" stroke-linecap="round" />
<line x1="149.93" y1="42.46" x2="141.60" y2="47.35" stroke="black" stroke-width="2" stroke-linejoin="round" stroke-linecap="round" />
<line x1="149.93" y1="42.46" x2="153.41" y2="40.43" stroke="blue" stroke-width="2" stroke-linejoin="round" stroke-linecap="round" />
<line x1="152.00" y1="45.99" x2="146.33" y2="49.31" stroke="black" stroke-width="2" stroke-linejoin="round" stroke-linecap="round" />
<line x1="152.00" y1="45.99" x2="157.67" y2="42.67" stroke="blue" stroke-width="2" stroke-linejoin="round" stroke-linecap="round" />
<line x1="141.60" y1="47.35" x2="141.62" y2="66.72" stroke="black" stroke-width="2" stroke-linejoin="round" stroke-linecap="round" />
<line x1="141.62" y1="66.72" x2="124.87" y2="76.31" stroke="black" stroke-width="2" stroke-linejoin="round" stroke-linecap="round" />
<line x1="141.62" y1="66.72" x2="158.32" y2="76.34" stroke="black" stroke-width="2" stroke-linejoin="round" stroke-linecap="round" />
<line x1="146.33" y1="64.72" x2="157.69" y2="71.26" stroke="black" stroke-width="2" stroke-linejoin="round" stroke-linecap="round" />
<line x1="166.71" y1="71.51" x2="158.32" y2="76.34" stroke="black" stroke-width="2" stroke-linejoin="round" stroke-linecap="round" />
<line x1="166.71" y1="71.51" x2="170.22" y2="69.49" stroke="blue" stroke-width="2" stroke-linejoin="round" stroke-linecap="round" />
<line x1="175.09" y1="56.99" x2="175.10" y2="61.04" stroke="blue" stroke-width="2" stroke-linejoin="round" stroke-linecap="round" />
<line x1="175.09" y1="56.99" x2="175.08" y2="47.30" stroke="black" stroke-width="2" stroke-linejoin="round" stroke-linecap="round" />
<line x1="171.01" y1="57.00" x2="171.02" y2="63.58" stroke="blue" stroke-width="2" stroke-linejoin="round" stroke-linecap="round" />
<line x1="171.01" y1="57.00" x2="171.00" y2="50.41" stroke="black" stroke-width="2" stroke-linejoin="round" stroke-linecap="round" />
<line x1="166.68" y1="42.44" x2="175.08" y2="47.30" stroke="black" stroke-width="2" stroke-linejoin="round" stroke-linecap="round" />
<line x1="166.68" y1="42.44" x2="163.15" y2="40.41" stroke="blue" stroke-width="2" stroke-linejoin="round" stroke-linecap="round" />
<line x1="158.32" y1="85.97" x2="158.32" y2="76.34" stroke="black" stroke-width="2" stroke-linejoin="round" stroke-linecap="round" />
<line x1="158.32" y1="85.97" x2="158.32" y2="89.97" stroke="blue" stroke-width="2" stroke-linejoin="round" stroke-linecap="round" />
<line x1="166.66" y1="100.42" x2="163.21" y2="98.43" stroke="blue" stroke-width="2" stroke-linejoin="round" stroke-linecap="round" />
<line x1="166.66" y1="100.42" x2="175.01" y2="105.24" stroke="black" stroke-width="2" stroke-linejoin="round" stroke-linecap="round" />
<line x1="175.01" y1="105.24" x2="175.01" y2="124.51" stroke="black" stroke-width="2" stroke-linejoin="round" stroke-linecap="round" />
<line x1="175.01" y1="124.51" x2="191.77" y2="134.22" stroke="black" stroke-width="2" stroke-linejoin="round" stroke-linecap="round" />
<line x1="175.64" y1="129.60" x2="187.04" y2="136.20" stroke="black" stroke-width="2" stroke-linejoin="round" stroke-linecap="round" />
<line x1="175.01" y1="124.51" x2="158.33" y2="134.17" stroke="black" stroke-width="2" stroke-linejoin="round" stroke-linecap="round" />
<line x1="158.33" y1="134.17" x2="158.25" y2="153.44" stroke="black" stroke-width="2" stroke-linejoin="round" stroke-linecap="round" />
<line x1="162.40" y1="137.27" x2="162.34" y2="150.37" stroke="black" stroke-width="2" stroke-linejoin="round" stroke-linecap="round" />
<line x1="158.25" y1="153.44" x2="175.01" y2="163.15" stroke="black" stroke-width="2" stroke-linejoin="round" stroke-linecap="round" />
<line x1="175.01" y1="163.15" x2="191.85" y2="153.59" stroke="black" stroke-width="2" stroke-linejoin="round" stroke-linecap="round" />
<line x1="175.69" y1="158.07" x2="187.14" y2="151.57" stroke="black" stroke-width="2" stroke-linejoin="round" stroke-linecap="round" />
<line x1="191.85" y1="153.59" x2="191.77" y2="134.22" stroke="black" stroke-width="2" stroke-linejoin="round" stroke-linecap="round" />
<line x1="174.96" y1="172.78" x2="175.01" y2="163.15" stroke="black" stroke-width="2" stroke-linejoin="round" stroke-linecap="round" />
<line x1="174.96" y1="172.78" x2="174.95" y2="175.43" stroke="#82d700" stroke-width="2" stroke-linejoin="round" stroke-linecap="round" />
<text x="175.11" y="69.32" fill="blue" font-family="Arial" font-size="8" font-style="normal" font-weight="normal" text-anchor="middle">  N </text>
<text x="158.27" y="40.22" fill="blue" font-family="Arial" font-size="8" font-style="normal" font-weight="normal" text-anchor="middle">  N </text>
<text x="158.32" y="98.25" fill="blue" font-family="Arial" font-size="8" font-style="normal" font-weight="normal" text-anchor="middle">  N </text>
<text x="152.72" y="98.25" fill="blue" font-family="Arial" font-size="8" font-style="normal" font-weight="normal" text-anchor="middle">  H </text>
<text x="174.92" y="185.06" fill="#82d700" font-family="Arial" font-size="8" font-style="normal" font-weight="normal" text-anchor="middle">  Cl </text>
<text x="150.00" y="21.67" fill="black" font-family="Arial" font-size="20" font-style="normal" font-weight="normal" text-anchor="middle">  SM04 </text>
</svg>
