<?xml version="1.0" encoding="UTF-8"?>
<!DOCTYPE svg PUBLIC "-//W3C//DTD SVG 1.1//EN"
  "http://www.w3.org/Graphics/SVG/1.1/DTD/svg11.dtd">
<svg xmlns="http://www.w3.org/2000/svg" xmlns:xlink="http://www.w3.org/1999/xlink"   viewBox="0.00 0.00 300.00 200.00">
<!-- Created by OpenEye Scientific Software -->
<!-- Creation Date Tue Jun  5 16:25:04 2018 -->
<rect width="300.00" height="200.00" fill="white" />
<line x1="232.27" y1="30.00" x2="204.74" y2="46.11" stroke="black" stroke-width="2" stroke-linejoin="round" stroke-linecap="round" />
<line x1="230.95" y1="37.85" x2="212.23" y2="48.80" stroke="black" stroke-width="2" stroke-linejoin="round" stroke-linecap="round" />
<line x1="232.27" y1="30.00" x2="260.09" y2="45.95" stroke="black" stroke-width="2" stroke-linejoin="round" stroke-linecap="round" />
<line x1="260.09" y1="45.95" x2="260.38" y2="78.02" stroke="black" stroke-width="2" stroke-linejoin="round" stroke-linecap="round" />
<line x1="254.03" y1="51.14" x2="254.23" y2="72.94" stroke="black" stroke-width="2" stroke-linejoin="round" stroke-linecap="round" />
<line x1="260.38" y1="78.02" x2="232.56" y2="93.97" stroke="black" stroke-width="2" stroke-linejoin="round" stroke-linecap="round" />
<line x1="232.56" y1="93.97" x2="204.74" y2="78.01" stroke="black" stroke-width="2" stroke-linejoin="round" stroke-linecap="round" />
<line x1="231.14" y1="86.12" x2="212.23" y2="75.27" stroke="black" stroke-width="2" stroke-linejoin="round" stroke-linecap="round" />
<line x1="204.74" y1="78.01" x2="204.74" y2="46.11" stroke="black" stroke-width="2" stroke-linejoin="round" stroke-linecap="round" />
<line x1="190.94" y1="86.01" x2="204.74" y2="78.01" stroke="black" stroke-width="2" stroke-linejoin="round" stroke-linecap="round" />
<line x1="190.94" y1="86.01" x2="183.99" y2="90.04" stroke="blue" stroke-width="2" stroke-linejoin="round" stroke-linecap="round" />
<line x1="163.31" y1="86.05" x2="170.28" y2="90.06" stroke="blue" stroke-width="2" stroke-linejoin="round" stroke-linecap="round" />
<line x1="163.31" y1="86.05" x2="149.49" y2="78.10" stroke="black" stroke-width="2" stroke-linejoin="round" stroke-linecap="round" />
<line x1="152.52" y1="62.14" x2="152.54" y2="78.09" stroke="black" stroke-width="2" stroke-linejoin="round" stroke-linecap="round" />
<line x1="152.52" y1="62.14" x2="152.51" y2="55.21" stroke="red" stroke-width="2" stroke-linejoin="round" stroke-linecap="round" />
<line x1="146.41" y1="62.15" x2="146.44" y2="78.10" stroke="black" stroke-width="2" stroke-linejoin="round" stroke-linecap="round" />
<line x1="146.41" y1="62.15" x2="146.40" y2="55.21" stroke="red" stroke-width="2" stroke-linejoin="round" stroke-linecap="round" />
<line x1="149.49" y1="78.10" x2="121.88" y2="94.09" stroke="black" stroke-width="2" stroke-linejoin="round" stroke-linecap="round" />
<line x1="107.32" y1="87.58" x2="121.88" y2="94.09" stroke="black" stroke-width="2" stroke-linejoin="round" stroke-linecap="round" />
<line x1="107.32" y1="87.58" x2="100.98" y2="84.74" stroke="red" stroke-width="2" stroke-linejoin="round" stroke-linecap="round" />
<line x1="121.88" y1="94.09" x2="118.70" y2="125.83" stroke="black" stroke-width="2" stroke-linejoin="round" stroke-linecap="round" />
<line x1="115.30" y1="98.56" x2="113.13" y2="120.14" stroke="black" stroke-width="2" stroke-linejoin="round" stroke-linecap="round" />
<line x1="118.70" y1="125.83" x2="87.46" y2="132.53" stroke="black" stroke-width="2" stroke-linejoin="round" stroke-linecap="round" />
<line x1="87.46" y1="132.53" x2="71.36" y2="104.93" stroke="black" stroke-width="2" stroke-linejoin="round" stroke-linecap="round" />
<line x1="90.16" y1="125.04" x2="79.21" y2="106.27" stroke="black" stroke-width="2" stroke-linejoin="round" stroke-linecap="round" />
<line x1="82.06" y1="93.00" x2="71.36" y2="104.93" stroke="black" stroke-width="2" stroke-linejoin="round" stroke-linecap="round" />
<line x1="82.06" y1="93.00" x2="86.73" y2="87.77" stroke="red" stroke-width="2" stroke-linejoin="round" stroke-linecap="round" />
<line x1="55.49" y1="103.32" x2="71.36" y2="104.93" stroke="black" stroke-width="2" stroke-linejoin="round" stroke-linecap="round" />
<line x1="55.49" y1="103.32" x2="49.68" y2="102.73" stroke="#82d700" stroke-width="2" stroke-linejoin="round" stroke-linecap="round" />
<line x1="232.56" y1="109.92" x2="232.56" y2="93.97" stroke="black" stroke-width="2" stroke-linejoin="round" stroke-linecap="round" />
<line x1="232.56" y1="109.92" x2="232.56" y2="117.95" stroke="blue" stroke-width="2" stroke-linejoin="round" stroke-linecap="round" />
<line x1="246.40" y1="133.96" x2="239.39" y2="129.86" stroke="blue" stroke-width="2" stroke-linejoin="round" stroke-linecap="round" />
<line x1="246.40" y1="133.96" x2="260.23" y2="142.06" stroke="black" stroke-width="2" stroke-linejoin="round" stroke-linecap="round" />
<line x1="218.72" y1="133.96" x2="225.73" y2="129.86" stroke="blue" stroke-width="2" stroke-linejoin="round" stroke-linecap="round" />
<line x1="218.72" y1="133.96" x2="204.89" y2="142.06" stroke="black" stroke-width="2" stroke-linejoin="round" stroke-linecap="round" />
<line x1="204.89" y1="142.06" x2="204.89" y2="174.13" stroke="black" stroke-width="2" stroke-linejoin="round" stroke-linecap="round" />
<line x1="204.89" y1="174.13" x2="232.56" y2="190.00" stroke="black" stroke-width="2" stroke-linejoin="round" stroke-linecap="round" />
<line x1="232.56" y1="190.00" x2="260.23" y2="174.13" stroke="black" stroke-width="2" stroke-linejoin="round" stroke-linecap="round" />
<line x1="260.23" y1="174.13" x2="260.23" y2="142.06" stroke="black" stroke-width="2" stroke-linejoin="round" stroke-linecap="round" />
<text x="177.14" y="98.30" fill="blue" font-family="Arial" font-size="13" font-style="normal" font-weight="normal" text-anchor="middle">  N </text>
<text x="177.14" y="108.70" fill="blue" font-family="Arial" font-size="13" font-style="normal" font-weight="normal" text-anchor="middle">  H </text>
<text x="149.44" y="50.49" fill="red" font-family="Arial" font-size="13" font-style="normal" font-weight="normal" text-anchor="middle">  O </text>
<text x="92.75" y="85.35" fill="red" font-family="Arial" font-size="13" font-style="normal" font-weight="normal" text-anchor="middle">  O </text>
<text x="39.62" y="105.99" fill="#82d700" font-family="Arial" font-size="13" font-style="normal" font-weight="normal" text-anchor="middle">  Cl </text>
<text x="232.56" y="130.16" fill="blue" font-family="Arial" font-size="13" font-style="normal" font-weight="normal" text-anchor="middle">  N </text>
<text x="150.00" y="21.67" fill="black" font-family="Arial" font-size="20" font-style="normal" font-weight="normal" text-anchor="middle">  SM05 </text>
</svg>
