<?xml version="1.0" encoding="UTF-8"?>
<!DOCTYPE svg PUBLIC "-//W3C//DTD SVG 1.1//EN"
  "http://www.w3.org/Graphics/SVG/1.1/DTD/svg11.dtd">
<svg xmlns="http://www.w3.org/2000/svg" xmlns:xlink="http://www.w3.org/1999/xlink"   viewBox="0.00 0.00 300.00 200.00">
<!-- Created by OpenEye Scientific Software -->
<!-- Creation Date Tue Jun  5 16:25:04 2018 -->
<rect width="300.00" height="200.00" fill="white" />
<line x1="122.29" y1="174.66" x2="122.29" y2="151.75" stroke="black" stroke-width="2" stroke-linejoin="round" stroke-linecap="round" />
<line x1="126.93" y1="170.99" x2="126.93" y2="155.42" stroke="black" stroke-width="2" stroke-linejoin="round" stroke-linecap="round" />
<line x1="122.29" y1="174.66" x2="142.06" y2="185.99" stroke="black" stroke-width="2" stroke-linejoin="round" stroke-linecap="round" />
<line x1="142.06" y1="185.99" x2="161.73" y2="174.66" stroke="black" stroke-width="2" stroke-linejoin="round" stroke-linecap="round" />
<line x1="142.90" y1="180.17" x2="156.27" y2="172.46" stroke="black" stroke-width="2" stroke-linejoin="round" stroke-linecap="round" />
<line x1="161.73" y1="174.66" x2="161.83" y2="151.75" stroke="black" stroke-width="2" stroke-linejoin="round" stroke-linecap="round" />
<line x1="161.73" y1="174.66" x2="181.41" y2="186.13" stroke="black" stroke-width="2" stroke-linejoin="round" stroke-linecap="round" />
<line x1="181.41" y1="186.13" x2="201.32" y2="174.82" stroke="black" stroke-width="2" stroke-linejoin="round" stroke-linecap="round" />
<line x1="182.31" y1="180.29" x2="195.84" y2="172.60" stroke="black" stroke-width="2" stroke-linejoin="round" stroke-linecap="round" />
<line x1="201.32" y1="174.82" x2="201.41" y2="151.92" stroke="black" stroke-width="2" stroke-linejoin="round" stroke-linecap="round" />
<line x1="191.51" y1="146.12" x2="201.41" y2="151.92" stroke="black" stroke-width="2" stroke-linejoin="round" stroke-linecap="round" />
<line x1="191.51" y1="146.12" x2="186.87" y2="143.40" stroke="blue" stroke-width="2" stroke-linejoin="round" stroke-linecap="round" />
<line x1="189.17" y1="150.12" x2="195.90" y2="154.06" stroke="black" stroke-width="2" stroke-linejoin="round" stroke-linecap="round" />
<line x1="189.17" y1="150.12" x2="182.44" y2="146.17" stroke="blue" stroke-width="2" stroke-linejoin="round" stroke-linecap="round" />
<line x1="171.72" y1="146.03" x2="176.33" y2="143.37" stroke="blue" stroke-width="2" stroke-linejoin="round" stroke-linecap="round" />
<line x1="171.72" y1="146.03" x2="161.83" y2="151.75" stroke="black" stroke-width="2" stroke-linejoin="round" stroke-linecap="round" />
<line x1="161.83" y1="151.75" x2="142.06" y2="140.18" stroke="black" stroke-width="2" stroke-linejoin="round" stroke-linecap="round" />
<line x1="156.33" y1="153.90" x2="142.88" y2="146.03" stroke="black" stroke-width="2" stroke-linejoin="round" stroke-linecap="round" />
<line x1="142.06" y1="140.18" x2="122.29" y2="151.75" stroke="black" stroke-width="2" stroke-linejoin="round" stroke-linecap="round" />
<line x1="142.06" y1="128.83" x2="142.06" y2="140.18" stroke="black" stroke-width="2" stroke-linejoin="round" stroke-linecap="round" />
<line x1="142.06" y1="128.83" x2="142.06" y2="123.57" stroke="blue" stroke-width="2" stroke-linejoin="round" stroke-linecap="round" />
<line x1="132.23" y1="111.80" x2="136.78" y2="114.43" stroke="blue" stroke-width="2" stroke-linejoin="round" stroke-linecap="round" />
<line x1="132.23" y1="111.80" x2="122.40" y2="106.12" stroke="black" stroke-width="2" stroke-linejoin="round" stroke-linecap="round" />
<line x1="111.41" y1="109.79" x2="121.24" y2="104.12" stroke="black" stroke-width="2" stroke-linejoin="round" stroke-linecap="round" />
<line x1="111.41" y1="109.79" x2="107.52" y2="112.04" stroke="red" stroke-width="2" stroke-linejoin="round" stroke-linecap="round" />
<line x1="113.73" y1="113.81" x2="123.56" y2="108.13" stroke="black" stroke-width="2" stroke-linejoin="round" stroke-linecap="round" />
<line x1="113.73" y1="113.81" x2="109.83" y2="116.05" stroke="red" stroke-width="2" stroke-linejoin="round" stroke-linecap="round" />
<line x1="122.40" y1="106.12" x2="122.40" y2="83.42" stroke="black" stroke-width="2" stroke-linejoin="round" stroke-linecap="round" />
<line x1="122.40" y1="83.42" x2="102.65" y2="71.98" stroke="black" stroke-width="2" stroke-linejoin="round" stroke-linecap="round" />
<line x1="121.56" y1="77.58" x2="108.13" y2="69.80" stroke="black" stroke-width="2" stroke-linejoin="round" stroke-linecap="round" />
<line x1="122.40" y1="83.42" x2="142.05" y2="72.04" stroke="black" stroke-width="2" stroke-linejoin="round" stroke-linecap="round" />
<line x1="142.05" y1="72.04" x2="142.14" y2="49.33" stroke="black" stroke-width="2" stroke-linejoin="round" stroke-linecap="round" />
<line x1="137.43" y1="68.38" x2="137.50" y2="52.95" stroke="black" stroke-width="2" stroke-linejoin="round" stroke-linecap="round" />
<line x1="142.14" y1="49.33" x2="122.40" y2="37.89" stroke="black" stroke-width="2" stroke-linejoin="round" stroke-linecap="round" />
<line x1="112.47" y1="43.53" x2="122.40" y2="37.89" stroke="black" stroke-width="2" stroke-linejoin="round" stroke-linecap="round" />
<line x1="112.47" y1="43.53" x2="107.85" y2="46.15" stroke="blue" stroke-width="2" stroke-linejoin="round" stroke-linecap="round" />
<line x1="114.76" y1="47.55" x2="121.51" y2="43.72" stroke="black" stroke-width="2" stroke-linejoin="round" stroke-linecap="round" />
<line x1="114.76" y1="47.55" x2="108.01" y2="51.38" stroke="blue" stroke-width="2" stroke-linejoin="round" stroke-linecap="round" />
<line x1="102.60" y1="60.57" x2="102.58" y2="55.25" stroke="blue" stroke-width="2" stroke-linejoin="round" stroke-linecap="round" />
<line x1="102.60" y1="60.57" x2="102.65" y2="71.98" stroke="black" stroke-width="2" stroke-linejoin="round" stroke-linecap="round" />
<line x1="151.99" y1="43.69" x2="142.14" y2="49.33" stroke="black" stroke-width="2" stroke-linejoin="round" stroke-linecap="round" />
<line x1="151.99" y1="43.69" x2="154.73" y2="42.12" stroke="#a00" stroke-width="2" stroke-linejoin="round" stroke-linecap="round" />
<text x="181.61" y="143.29" fill="blue" font-family="Arial" font-size="9" font-style="normal" font-weight="normal" text-anchor="middle">  N </text>
<text x="142.06" y="120.45" fill="blue" font-family="Arial" font-size="9" font-style="normal" font-weight="normal" text-anchor="middle">  N </text>
<text x="148.36" y="120.45" fill="blue" font-family="Arial" font-size="9" font-style="normal" font-weight="normal" text-anchor="middle">  H </text>
<text x="102.74" y="120.45" fill="red" font-family="Arial" font-size="9" font-style="normal" font-weight="normal" text-anchor="middle">  O </text>
<text x="102.55" y="52.13" fill="blue" font-family="Arial" font-size="9" font-style="normal" font-weight="normal" text-anchor="middle">  N </text>
<text x="161.84" y="41.01" fill="#a00" font-family="Arial" font-size="9" font-style="normal" font-weight="normal" text-anchor="middle">  Br </text>
<text x="150.00" y="21.67" fill="black" font-family="Arial" font-size="20" font-style="normal" font-weight="normal" text-anchor="middle">  SM06 </text>
</svg>
