<?xml version="1.0" encoding="UTF-8"?>
<!DOCTYPE svg PUBLIC "-//W3C//DTD SVG 1.1//EN"
  "http://www.w3.org/Graphics/SVG/1.1/DTD/svg11.dtd">
<svg xmlns="http://www.w3.org/2000/svg" xmlns:xlink="http://www.w3.org/1999/xlink"   viewBox="0.00 0.00 300.00 200.00">
<!-- Created by OpenEye Scientific Software -->
<!-- Creation Date Tue Jun  5 16:25:04 2018 -->
<rect width="300.00" height="200.00" fill="white" />
<line x1="179.72" y1="186.13" x2="159.90" y2="174.77" stroke="black" stroke-width="2" stroke-linejoin="round" stroke-linecap="round" />
<line x1="178.85" y1="180.29" x2="165.38" y2="172.56" stroke="black" stroke-width="2" stroke-linejoin="round" stroke-linecap="round" />
<line x1="179.72" y1="186.13" x2="199.33" y2="174.65" stroke="black" stroke-width="2" stroke-linejoin="round" stroke-linecap="round" />
<line x1="199.33" y1="174.65" x2="199.33" y2="151.93" stroke="black" stroke-width="2" stroke-linejoin="round" stroke-linecap="round" />
<line x1="194.70" y1="171.02" x2="194.70" y2="155.56" stroke="black" stroke-width="2" stroke-linejoin="round" stroke-linecap="round" />
<line x1="199.33" y1="151.93" x2="179.52" y2="140.56" stroke="black" stroke-width="2" stroke-linejoin="round" stroke-linecap="round" />
<line x1="179.52" y1="140.56" x2="159.70" y2="151.92" stroke="black" stroke-width="2" stroke-linejoin="round" stroke-linecap="round" />
<line x1="178.65" y1="146.40" x2="165.18" y2="154.13" stroke="black" stroke-width="2" stroke-linejoin="round" stroke-linecap="round" />
<line x1="159.70" y1="151.92" x2="159.90" y2="174.77" stroke="black" stroke-width="2" stroke-linejoin="round" stroke-linecap="round" />
<line x1="179.52" y1="140.56" x2="179.52" y2="117.83" stroke="black" stroke-width="2" stroke-linejoin="round" stroke-linecap="round" />
<line x1="169.68" y1="112.15" x2="179.52" y2="117.83" stroke="black" stroke-width="2" stroke-linejoin="round" stroke-linecap="round" />
<line x1="169.68" y1="112.15" x2="165.12" y2="109.52" stroke="blue" stroke-width="2" stroke-linejoin="round" stroke-linecap="round" />
<line x1="159.84" y1="95.11" x2="159.84" y2="100.37" stroke="blue" stroke-width="2" stroke-linejoin="round" stroke-linecap="round" />
<line x1="159.84" y1="95.11" x2="159.84" y2="83.74" stroke="black" stroke-width="2" stroke-linejoin="round" stroke-linecap="round" />
<line x1="169.74" y1="78.05" x2="159.84" y2="83.74" stroke="black" stroke-width="2" stroke-linejoin="round" stroke-linecap="round" />
<line x1="169.74" y1="78.05" x2="174.35" y2="75.39" stroke="blue" stroke-width="2" stroke-linejoin="round" stroke-linecap="round" />
<line x1="167.43" y1="74.03" x2="160.70" y2="77.90" stroke="black" stroke-width="2" stroke-linejoin="round" stroke-linecap="round" />
<line x1="167.43" y1="74.03" x2="174.16" y2="70.16" stroke="blue" stroke-width="2" stroke-linejoin="round" stroke-linecap="round" />
<line x1="159.84" y1="83.74" x2="140.14" y2="72.41" stroke="black" stroke-width="2" stroke-linejoin="round" stroke-linecap="round" />
<line x1="140.14" y1="72.41" x2="140.11" y2="49.55" stroke="black" stroke-width="2" stroke-linejoin="round" stroke-linecap="round" />
<line x1="144.77" y1="68.74" x2="144.75" y2="53.20" stroke="black" stroke-width="2" stroke-linejoin="round" stroke-linecap="round" />
<line x1="140.14" y1="72.41" x2="120.39" y2="83.72" stroke="black" stroke-width="2" stroke-linejoin="round" stroke-linecap="round" />
<line x1="120.39" y1="83.72" x2="100.67" y2="72.41" stroke="black" stroke-width="2" stroke-linejoin="round" stroke-linecap="round" />
<line x1="119.54" y1="77.88" x2="106.13" y2="70.19" stroke="black" stroke-width="2" stroke-linejoin="round" stroke-linecap="round" />
<line x1="100.67" y1="72.41" x2="100.67" y2="49.55" stroke="black" stroke-width="2" stroke-linejoin="round" stroke-linecap="round" />
<line x1="100.67" y1="49.55" x2="120.39" y2="38.01" stroke="black" stroke-width="2" stroke-linejoin="round" stroke-linecap="round" />
<line x1="106.16" y1="51.71" x2="119.58" y2="43.86" stroke="black" stroke-width="2" stroke-linejoin="round" stroke-linecap="round" />
<line x1="120.39" y1="38.01" x2="140.11" y2="49.55" stroke="black" stroke-width="2" stroke-linejoin="round" stroke-linecap="round" />
<line x1="149.95" y1="43.79" x2="140.11" y2="49.55" stroke="black" stroke-width="2" stroke-linejoin="round" stroke-linecap="round" />
<line x1="149.95" y1="43.79" x2="154.52" y2="41.12" stroke="blue" stroke-width="2" stroke-linejoin="round" stroke-linecap="round" />
<line x1="169.69" y1="43.77" x2="165.06" y2="41.09" stroke="blue" stroke-width="2" stroke-linejoin="round" stroke-linecap="round" />
<line x1="169.69" y1="43.77" x2="179.61" y2="49.50" stroke="black" stroke-width="2" stroke-linejoin="round" stroke-linecap="round" />
<line x1="167.37" y1="47.78" x2="160.63" y2="43.88" stroke="blue" stroke-width="2" stroke-linejoin="round" stroke-linecap="round" />
<line x1="167.37" y1="47.78" x2="174.11" y2="51.68" stroke="black" stroke-width="2" stroke-linejoin="round" stroke-linecap="round" />
<line x1="179.62" y1="60.93" x2="179.61" y2="49.50" stroke="black" stroke-width="2" stroke-linejoin="round" stroke-linecap="round" />
<line x1="179.62" y1="60.93" x2="179.63" y2="66.26" stroke="blue" stroke-width="2" stroke-linejoin="round" stroke-linecap="round" />
<text x="159.84" y="109.44" fill="blue" font-family="Arial" font-size="9" font-style="normal" font-weight="normal" text-anchor="middle">  N </text>
<text x="153.54" y="109.44" fill="blue" font-family="Arial" font-size="9" font-style="normal" font-weight="normal" text-anchor="middle">  H </text>
<text x="159.78" y="41.01" fill="blue" font-family="Arial" font-size="9" font-style="normal" font-weight="normal" text-anchor="middle">  N </text>
<text x="179.64" y="75.32" fill="blue" font-family="Arial" font-size="9" font-style="normal" font-weight="normal" text-anchor="middle">  N </text>
<text x="150.00" y="21.67" fill="black" font-family="Arial" font-size="20" font-style="normal" font-weight="normal" text-anchor="middle">  SM07 </text>
</svg>
