<?xml version="1.0" encoding="UTF-8"?>
<!DOCTYPE svg PUBLIC "-//W3C//DTD SVG 1.1//EN"
  "http://www.w3.org/Graphics/SVG/1.1/DTD/svg11.dtd">
<svg xmlns="http://www.w3.org/2000/svg" xmlns:xlink="http://www.w3.org/1999/xlink"   viewBox="0.00 0.00 300.00 200.00">
<!-- Created by OpenEye Scientific Software -->
<!-- Creation Date Tue Jun  5 16:25:04 2018 -->
<rect width="300.00" height="200.00" fill="white" />
<line x1="48.37" y1="103.47" x2="72.12" y2="89.71" stroke="black" stroke-width="2" stroke-linejoin="round" stroke-linecap="round" />
<line x1="72.12" y1="89.71" x2="96.01" y2="103.42" stroke="black" stroke-width="2" stroke-linejoin="round" stroke-linecap="round" />
<line x1="78.62" y1="87.23" x2="94.87" y2="96.55" stroke="black" stroke-width="2" stroke-linejoin="round" stroke-linecap="round" />
<line x1="72.12" y1="89.71" x2="72.12" y2="62.03" stroke="black" stroke-width="2" stroke-linejoin="round" stroke-linecap="round" />
<line x1="72.12" y1="62.03" x2="96.01" y2="48.04" stroke="black" stroke-width="2" stroke-linejoin="round" stroke-linecap="round" />
<line x1="78.66" y1="64.44" x2="94.91" y2="54.93" stroke="black" stroke-width="2" stroke-linejoin="round" stroke-linecap="round" />
<line x1="96.01" y1="48.04" x2="119.91" y2="62.03" stroke="black" stroke-width="2" stroke-linejoin="round" stroke-linecap="round" />
<line x1="131.86" y1="55.12" x2="119.91" y2="62.03" stroke="black" stroke-width="2" stroke-linejoin="round" stroke-linecap="round" />
<line x1="131.86" y1="55.12" x2="137.75" y2="51.71" stroke="blue" stroke-width="2" stroke-linejoin="round" stroke-linecap="round" />
<line x1="119.91" y1="62.03" x2="119.79" y2="89.71" stroke="black" stroke-width="2" stroke-linejoin="round" stroke-linecap="round" />
<line x1="125.28" y1="66.48" x2="125.20" y2="85.31" stroke="black" stroke-width="2" stroke-linejoin="round" stroke-linecap="round" />
<line x1="119.79" y1="89.71" x2="96.01" y2="103.42" stroke="black" stroke-width="2" stroke-linejoin="round" stroke-linecap="round" />
<line x1="119.79" y1="89.71" x2="143.58" y2="103.58" stroke="black" stroke-width="2" stroke-linejoin="round" stroke-linecap="round" />
<line x1="143.58" y1="103.58" x2="167.63" y2="89.92" stroke="black" stroke-width="2" stroke-linejoin="round" stroke-linecap="round" />
<line x1="144.76" y1="96.71" x2="161.12" y2="87.41" stroke="black" stroke-width="2" stroke-linejoin="round" stroke-linecap="round" />
<line x1="167.63" y1="89.92" x2="167.75" y2="62.23" stroke="black" stroke-width="2" stroke-linejoin="round" stroke-linecap="round" />
<line x1="181.01" y1="57.78" x2="169.09" y2="64.57" stroke="black" stroke-width="2" stroke-linejoin="round" stroke-linecap="round" />
<line x1="181.01" y1="57.78" x2="186.03" y2="54.91" stroke="red" stroke-width="2" stroke-linejoin="round" stroke-linecap="round" />
<line x1="178.34" y1="53.09" x2="166.42" y2="59.89" stroke="black" stroke-width="2" stroke-linejoin="round" stroke-linecap="round" />
<line x1="178.34" y1="53.09" x2="183.36" y2="50.23" stroke="red" stroke-width="2" stroke-linejoin="round" stroke-linecap="round" />
<line x1="155.78" y1="55.22" x2="167.75" y2="62.23" stroke="black" stroke-width="2" stroke-linejoin="round" stroke-linecap="round" />
<line x1="155.78" y1="55.22" x2="149.86" y2="51.75" stroke="blue" stroke-width="2" stroke-linejoin="round" stroke-linecap="round" />
<line x1="167.63" y1="89.92" x2="191.32" y2="103.77" stroke="black" stroke-width="2" stroke-linejoin="round" stroke-linecap="round" />
<line x1="191.32" y1="103.77" x2="215.17" y2="90.18" stroke="black" stroke-width="2" stroke-linejoin="round" stroke-linecap="round" />
<line x1="217.94" y1="76.48" x2="217.86" y2="90.20" stroke="black" stroke-width="2" stroke-linejoin="round" stroke-linecap="round" />
<line x1="217.94" y1="76.48" x2="217.97" y2="70.69" stroke="red" stroke-width="2" stroke-linejoin="round" stroke-linecap="round" />
<line x1="212.55" y1="76.45" x2="212.47" y2="90.17" stroke="black" stroke-width="2" stroke-linejoin="round" stroke-linecap="round" />
<line x1="212.55" y1="76.45" x2="212.58" y2="70.66" stroke="red" stroke-width="2" stroke-linejoin="round" stroke-linecap="round" />
<line x1="227.01" y1="97.11" x2="215.17" y2="90.18" stroke="black" stroke-width="2" stroke-linejoin="round" stroke-linecap="round" />
<line x1="227.01" y1="97.11" x2="232.01" y2="100.03" stroke="red" stroke-width="2" stroke-linejoin="round" stroke-linecap="round" />
<line x1="143.58" y1="103.58" x2="143.42" y2="131.02" stroke="black" stroke-width="2" stroke-linejoin="round" stroke-linecap="round" />
<line x1="143.42" y1="131.02" x2="119.42" y2="144.61" stroke="black" stroke-width="2" stroke-linejoin="round" stroke-linecap="round" />
<line x1="142.24" y1="137.89" x2="125.92" y2="147.13" stroke="black" stroke-width="2" stroke-linejoin="round" stroke-linecap="round" />
<line x1="143.42" y1="131.02" x2="167.28" y2="144.88" stroke="black" stroke-width="2" stroke-linejoin="round" stroke-linecap="round" />
<line x1="167.28" y1="144.88" x2="167.13" y2="172.32" stroke="black" stroke-width="2" stroke-linejoin="round" stroke-linecap="round" />
<line x1="161.86" y1="149.24" x2="161.76" y2="167.90" stroke="black" stroke-width="2" stroke-linejoin="round" stroke-linecap="round" />
<line x1="167.13" y1="172.32" x2="143.36" y2="186.05" stroke="black" stroke-width="2" stroke-linejoin="round" stroke-linecap="round" />
<line x1="143.36" y1="186.05" x2="119.51" y2="172.20" stroke="black" stroke-width="2" stroke-linejoin="round" stroke-linecap="round" />
<line x1="142.25" y1="179.17" x2="126.03" y2="169.75" stroke="black" stroke-width="2" stroke-linejoin="round" stroke-linecap="round" />
<line x1="119.51" y1="172.20" x2="119.42" y2="144.61" stroke="black" stroke-width="2" stroke-linejoin="round" stroke-linecap="round" />
<text x="191.59" y="52.27" fill="red" font-family="Arial" font-size="11" font-style="normal" font-weight="normal" text-anchor="middle">  O </text>
<text x="143.81" y="51.84" fill="blue" font-family="Arial" font-size="11" font-style="normal" font-weight="normal" text-anchor="middle">  N </text>
<text x="143.81" y="43.04" fill="blue" font-family="Arial" font-size="11" font-style="normal" font-weight="normal" text-anchor="middle">  H </text>
<text x="215.32" y="66.37" fill="red" font-family="Arial" font-size="11" font-style="normal" font-weight="normal" text-anchor="middle">  O </text>
<text x="238.86" y="107.67" fill="red" font-family="Arial" font-size="11" font-style="normal" font-weight="normal" text-anchor="middle">  O </text>
<text x="247.27" y="107.67" fill="red" font-family="Arial" font-size="11" font-style="normal" font-weight="normal" text-anchor="middle">  H </text>
<text x="150.00" y="21.67" fill="black" font-family="Arial" font-size="20" font-style="normal" font-weight="normal" text-anchor="middle">  SM08 </text>
</svg>
