<?xml version="1.0" encoding="UTF-8"?>
<!DOCTYPE svg PUBLIC "-//W3C//DTD SVG 1.1//EN"
  "http://www.w3.org/Graphics/SVG/1.1/DTD/svg11.dtd">
<svg xmlns="http://www.w3.org/2000/svg" xmlns:xlink="http://www.w3.org/1999/xlink"   viewBox="0.00 0.00 300.00 200.00">
<!-- Created by OpenEye Scientific Software -->
<!-- Creation Date Tue Jun  5 16:25:04 2018 -->
<rect width="300.00" height="200.00" fill="white" />
<line x1="95.07" y1="180.50" x2="85.18" y2="186.13" stroke="black" stroke-width="2" stroke-linejoin="round" stroke-linecap="round" />
<line x1="95.07" y1="180.50" x2="99.00" y2="178.26" stroke="red" stroke-width="2" stroke-linejoin="round" stroke-linecap="round" />
<line x1="105.03" y1="163.49" x2="105.00" y2="168.01" stroke="red" stroke-width="2" stroke-linejoin="round" stroke-linecap="round" />
<line x1="105.03" y1="163.49" x2="105.10" y2="152.10" stroke="black" stroke-width="2" stroke-linejoin="round" stroke-linecap="round" />
<line x1="105.10" y1="152.10" x2="125.01" y2="140.84" stroke="black" stroke-width="2" stroke-linejoin="round" stroke-linecap="round" />
<line x1="106.00" y1="146.26" x2="119.54" y2="138.60" stroke="black" stroke-width="2" stroke-linejoin="round" stroke-linecap="round" />
<line x1="105.10" y1="152.10" x2="85.32" y2="140.60" stroke="black" stroke-width="2" stroke-linejoin="round" stroke-linecap="round" />
<line x1="85.32" y1="140.60" x2="85.45" y2="117.84" stroke="black" stroke-width="2" stroke-linejoin="round" stroke-linecap="round" />
<line x1="89.98" y1="136.99" x2="90.07" y2="121.51" stroke="black" stroke-width="2" stroke-linejoin="round" stroke-linecap="round" />
<line x1="85.45" y1="117.84" x2="105.17" y2="106.46" stroke="black" stroke-width="2" stroke-linejoin="round" stroke-linecap="round" />
<line x1="105.17" y1="106.46" x2="124.95" y2="117.96" stroke="black" stroke-width="2" stroke-linejoin="round" stroke-linecap="round" />
<line x1="106.00" y1="112.31" x2="119.45" y2="120.13" stroke="black" stroke-width="2" stroke-linejoin="round" stroke-linecap="round" />
<line x1="124.95" y1="117.96" x2="125.01" y2="140.84" stroke="black" stroke-width="2" stroke-linejoin="round" stroke-linecap="round" />
<line x1="134.81" y1="112.27" x2="124.95" y2="117.96" stroke="black" stroke-width="2" stroke-linejoin="round" stroke-linecap="round" />
<line x1="134.81" y1="112.27" x2="139.38" y2="109.63" stroke="blue" stroke-width="2" stroke-linejoin="round" stroke-linecap="round" />
<line x1="144.66" y1="95.20" x2="144.66" y2="100.49" stroke="blue" stroke-width="2" stroke-linejoin="round" stroke-linecap="round" />
<line x1="144.66" y1="95.20" x2="144.67" y2="83.82" stroke="black" stroke-width="2" stroke-linejoin="round" stroke-linecap="round" />
<line x1="154.58" y1="78.11" x2="144.67" y2="83.82" stroke="black" stroke-width="2" stroke-linejoin="round" stroke-linecap="round" />
<line x1="154.58" y1="78.11" x2="159.21" y2="75.45" stroke="blue" stroke-width="2" stroke-linejoin="round" stroke-linecap="round" />
<line x1="152.26" y1="74.09" x2="145.52" y2="77.97" stroke="black" stroke-width="2" stroke-linejoin="round" stroke-linecap="round" />
<line x1="152.26" y1="74.09" x2="159.00" y2="70.21" stroke="blue" stroke-width="2" stroke-linejoin="round" stroke-linecap="round" />
<line x1="144.67" y1="83.82" x2="124.94" y2="72.46" stroke="black" stroke-width="2" stroke-linejoin="round" stroke-linecap="round" />
<line x1="124.94" y1="72.46" x2="124.91" y2="49.57" stroke="black" stroke-width="2" stroke-linejoin="round" stroke-linecap="round" />
<line x1="129.57" y1="68.79" x2="129.55" y2="53.23" stroke="black" stroke-width="2" stroke-linejoin="round" stroke-linecap="round" />
<line x1="124.94" y1="72.46" x2="105.15" y2="83.79" stroke="black" stroke-width="2" stroke-linejoin="round" stroke-linecap="round" />
<line x1="105.15" y1="83.79" x2="85.39" y2="72.46" stroke="black" stroke-width="2" stroke-linejoin="round" stroke-linecap="round" />
<line x1="104.30" y1="77.95" x2="90.86" y2="70.25" stroke="black" stroke-width="2" stroke-linejoin="round" stroke-linecap="round" />
<line x1="85.39" y1="72.46" x2="85.39" y2="49.57" stroke="black" stroke-width="2" stroke-linejoin="round" stroke-linecap="round" />
<line x1="85.39" y1="49.57" x2="105.15" y2="38.01" stroke="black" stroke-width="2" stroke-linejoin="round" stroke-linecap="round" />
<line x1="90.90" y1="51.73" x2="104.33" y2="43.86" stroke="black" stroke-width="2" stroke-linejoin="round" stroke-linecap="round" />
<line x1="105.15" y1="38.01" x2="124.91" y2="49.57" stroke="black" stroke-width="2" stroke-linejoin="round" stroke-linecap="round" />
<line x1="134.76" y1="43.80" x2="124.91" y2="49.57" stroke="black" stroke-width="2" stroke-linejoin="round" stroke-linecap="round" />
<line x1="134.76" y1="43.80" x2="139.35" y2="41.12" stroke="blue" stroke-width="2" stroke-linejoin="round" stroke-linecap="round" />
<line x1="154.53" y1="43.78" x2="149.88" y2="41.09" stroke="blue" stroke-width="2" stroke-linejoin="round" stroke-linecap="round" />
<line x1="154.53" y1="43.78" x2="164.46" y2="49.52" stroke="black" stroke-width="2" stroke-linejoin="round" stroke-linecap="round" />
<line x1="152.21" y1="47.80" x2="145.46" y2="43.89" stroke="blue" stroke-width="2" stroke-linejoin="round" stroke-linecap="round" />
<line x1="152.21" y1="47.80" x2="158.96" y2="51.70" stroke="black" stroke-width="2" stroke-linejoin="round" stroke-linecap="round" />
<line x1="164.48" y1="60.96" x2="164.46" y2="49.52" stroke="black" stroke-width="2" stroke-linejoin="round" stroke-linecap="round" />
<line x1="164.48" y1="60.96" x2="164.48" y2="66.31" stroke="blue" stroke-width="2" stroke-linejoin="round" stroke-linecap="round" />
<text x="104.96" y="177.84" fill="red" font-family="Arial" font-size="9" font-style="normal" font-weight="normal" text-anchor="middle">  O </text>
<text x="144.66" y="109.55" fill="blue" font-family="Arial" font-size="9" font-style="normal" font-weight="normal" text-anchor="middle">  N </text>
<text x="150.96" y="109.55" fill="blue" font-family="Arial" font-size="9" font-style="normal" font-weight="normal" text-anchor="middle">  H </text>
<text x="144.61" y="41.01" fill="blue" font-family="Arial" font-size="9" font-style="normal" font-weight="normal" text-anchor="middle">  N </text>
<text x="164.49" y="75.38" fill="blue" font-family="Arial" font-size="9" font-style="normal" font-weight="normal" text-anchor="middle">  N </text>
<text x="210.02" y="115.04" fill="#82d700" font-family="Arial" font-size="9" font-style="normal" font-weight="normal" text-anchor="middle">  Cl </text>
<text x="202.55" y="115.04" fill="#82d700" font-family="Arial" font-size="9" font-style="normal" font-weight="normal" text-anchor="middle">  H </text>
<text x="150.00" y="21.67" fill="black" font-family="Arial" font-size="20" font-style="normal" font-weight="normal" text-anchor="middle">  SM09 </text>
</svg>
