<?xml version="1.0" encoding="UTF-8"?>
<!DOCTYPE svg PUBLIC "-//W3C//DTD SVG 1.1//EN"
  "http://www.w3.org/Graphics/SVG/1.1/DTD/svg11.dtd">
<svg xmlns="http://www.w3.org/2000/svg" xmlns:xlink="http://www.w3.org/1999/xlink"   viewBox="0.00 0.00 300.00 200.00">
<!-- Created by OpenEye Scientific Software -->
<!-- Creation Date Tue Jun  5 16:25:04 2018 -->
<rect width="300.00" height="200.00" fill="white" />
<line x1="270.31" y1="32.37" x2="285.00" y2="57.64" stroke="black" stroke-width="2" stroke-linejoin="round" stroke-linecap="round" />
<line x1="267.77" y1="39.26" x2="277.76" y2="56.44" stroke="black" stroke-width="2" stroke-linejoin="round" stroke-linecap="round" />
<line x1="270.31" y1="32.37" x2="241.23" y2="32.54" stroke="black" stroke-width="2" stroke-linejoin="round" stroke-linecap="round" />
<line x1="241.23" y1="32.54" x2="226.70" y2="57.73" stroke="black" stroke-width="2" stroke-linejoin="round" stroke-linecap="round" />
<line x1="243.80" y1="39.40" x2="233.92" y2="56.52" stroke="black" stroke-width="2" stroke-linejoin="round" stroke-linecap="round" />
<line x1="226.70" y1="57.73" x2="241.39" y2="83.00" stroke="black" stroke-width="2" stroke-linejoin="round" stroke-linecap="round" />
<line x1="241.39" y1="83.00" x2="270.61" y2="83.08" stroke="black" stroke-width="2" stroke-linejoin="round" stroke-linecap="round" />
<line x1="246.08" y1="77.36" x2="265.95" y2="77.41" stroke="black" stroke-width="2" stroke-linejoin="round" stroke-linecap="round" />
<line x1="270.61" y1="83.08" x2="285.00" y2="57.64" stroke="black" stroke-width="2" stroke-linejoin="round" stroke-linecap="round" />
<line x1="241.39" y1="83.00" x2="226.85" y2="108.18" stroke="black" stroke-width="2" stroke-linejoin="round" stroke-linecap="round" />
<line x1="231.67" y1="122.18" x2="224.40" y2="109.59" stroke="black" stroke-width="2" stroke-linejoin="round" stroke-linecap="round" />
<line x1="231.67" y1="122.18" x2="234.70" y2="127.43" stroke="red" stroke-width="2" stroke-linejoin="round" stroke-linecap="round" />
<line x1="236.57" y1="119.36" x2="229.30" y2="106.77" stroke="black" stroke-width="2" stroke-linejoin="round" stroke-linecap="round" />
<line x1="236.57" y1="119.36" x2="239.60" y2="124.61" stroke="red" stroke-width="2" stroke-linejoin="round" stroke-linecap="round" />
<line x1="212.31" y1="108.18" x2="226.85" y2="108.18" stroke="black" stroke-width="2" stroke-linejoin="round" stroke-linecap="round" />
<line x1="212.31" y1="108.18" x2="205.23" y2="108.18" stroke="blue" stroke-width="2" stroke-linejoin="round" stroke-linecap="round" />
<line x1="190.50" y1="120.77" x2="194.04" y2="114.64" stroke="blue" stroke-width="2" stroke-linejoin="round" stroke-linecap="round" />
<line x1="190.50" y1="120.77" x2="183.23" y2="133.36" stroke="black" stroke-width="2" stroke-linejoin="round" stroke-linecap="round" />
<line x1="183.23" y1="133.36" x2="154.16" y2="133.36" stroke="black" stroke-width="2" stroke-linejoin="round" stroke-linecap="round" />
<line x1="149.33" y1="119.36" x2="156.60" y2="131.95" stroke="black" stroke-width="2" stroke-linejoin="round" stroke-linecap="round" />
<line x1="149.33" y1="119.36" x2="146.30" y2="114.11" stroke="red" stroke-width="2" stroke-linejoin="round" stroke-linecap="round" />
<line x1="144.44" y1="122.19" x2="151.71" y2="134.78" stroke="black" stroke-width="2" stroke-linejoin="round" stroke-linecap="round" />
<line x1="144.44" y1="122.19" x2="141.41" y2="116.94" stroke="red" stroke-width="2" stroke-linejoin="round" stroke-linecap="round" />
<line x1="146.89" y1="145.96" x2="154.16" y2="133.36" stroke="black" stroke-width="2" stroke-linejoin="round" stroke-linecap="round" />
<line x1="146.89" y1="145.96" x2="143.35" y2="152.09" stroke="blue" stroke-width="2" stroke-linejoin="round" stroke-linecap="round" />
<line x1="125.08" y1="158.55" x2="132.16" y2="158.55" stroke="blue" stroke-width="2" stroke-linejoin="round" stroke-linecap="round" />
<line x1="125.08" y1="158.55" x2="110.54" y2="158.55" stroke="black" stroke-width="2" stroke-linejoin="round" stroke-linecap="round" />
<line x1="101.94" y1="146.71" x2="110.54" y2="158.55" stroke="black" stroke-width="2" stroke-linejoin="round" stroke-linecap="round" />
<line x1="101.94" y1="146.71" x2="97.71" y2="140.90" stroke="#ebc80a" stroke-width="2" stroke-linejoin="round" stroke-linecap="round" />
<line x1="101.94" y1="170.39" x2="110.54" y2="158.55" stroke="black" stroke-width="2" stroke-linejoin="round" stroke-linecap="round" />
<line x1="101.94" y1="170.39" x2="97.71" y2="176.21" stroke="blue" stroke-width="2" stroke-linejoin="round" stroke-linecap="round" />
<line x1="97.36" y1="167.07" x2="103.22" y2="159.02" stroke="black" stroke-width="2" stroke-linejoin="round" stroke-linecap="round" />
<line x1="97.36" y1="167.07" x2="91.51" y2="175.13" stroke="blue" stroke-width="2" stroke-linejoin="round" stroke-linecap="round" />
<line x1="79.40" y1="177.71" x2="86.23" y2="179.93" stroke="blue" stroke-width="2" stroke-linejoin="round" stroke-linecap="round" />
<line x1="79.40" y1="177.71" x2="65.48" y2="173.19" stroke="black" stroke-width="2" stroke-linejoin="round" stroke-linecap="round" />
<line x1="65.48" y1="173.19" x2="65.48" y2="143.91" stroke="black" stroke-width="2" stroke-linejoin="round" stroke-linecap="round" />
<line x1="59.83" y1="168.50" x2="59.83" y2="148.59" stroke="black" stroke-width="2" stroke-linejoin="round" stroke-linecap="round" />
<line x1="65.48" y1="173.19" x2="40.24" y2="187.63" stroke="black" stroke-width="2" stroke-linejoin="round" stroke-linecap="round" />
<line x1="40.24" y1="187.63" x2="15.00" y2="173.15" stroke="black" stroke-width="2" stroke-linejoin="round" stroke-linecap="round" />
<line x1="39.01" y1="180.41" x2="21.85" y2="170.57" stroke="black" stroke-width="2" stroke-linejoin="round" stroke-linecap="round" />
<line x1="15.00" y1="173.15" x2="15.00" y2="143.91" stroke="black" stroke-width="2" stroke-linejoin="round" stroke-linecap="round" />
<line x1="15.00" y1="143.91" x2="40.24" y2="129.14" stroke="black" stroke-width="2" stroke-linejoin="round" stroke-linecap="round" />
<line x1="21.89" y1="146.42" x2="39.06" y2="136.38" stroke="black" stroke-width="2" stroke-linejoin="round" stroke-linecap="round" />
<line x1="40.24" y1="129.14" x2="65.48" y2="143.91" stroke="black" stroke-width="2" stroke-linejoin="round" stroke-linecap="round" />
<line x1="79.40" y1="139.39" x2="65.48" y2="143.91" stroke="black" stroke-width="2" stroke-linejoin="round" stroke-linecap="round" />
<line x1="79.40" y1="139.39" x2="86.23" y2="137.17" stroke="#ebc80a" stroke-width="2" stroke-linejoin="round" stroke-linecap="round" />
<text x="241.39" y="137.32" fill="red" font-family="Arial" font-size="12" font-style="normal" font-weight="normal" text-anchor="middle">  O </text>
<text x="197.77" y="112.14" fill="blue" font-family="Arial" font-size="12" font-style="normal" font-weight="normal" text-anchor="middle">  N </text>
<text x="197.77" y="102.54" fill="blue" font-family="Arial" font-size="12" font-style="normal" font-weight="normal" text-anchor="middle">  H </text>
<text x="139.62" y="112.14" fill="red" font-family="Arial" font-size="12" font-style="normal" font-weight="normal" text-anchor="middle">  O </text>
<text x="139.62" y="162.51" fill="blue" font-family="Arial" font-size="12" font-style="normal" font-weight="normal" text-anchor="middle">  N </text>
<text x="139.62" y="172.11" fill="blue" font-family="Arial" font-size="12" font-style="normal" font-weight="normal" text-anchor="middle">  H </text>
<text x="93.33" y="186.20" fill="blue" font-family="Arial" font-size="12" font-style="normal" font-weight="normal" text-anchor="middle">  N </text>
<text x="93.33" y="138.82" fill="#ebc80a" font-family="Arial" font-size="12" font-style="normal" font-weight="normal" text-anchor="middle">  S </text>
<text x="150.00" y="21.67" fill="black" font-family="Arial" font-size="20" font-style="normal" font-weight="normal" text-anchor="middle">  SM10 </text>
</svg>
