<?xml version="1.0" encoding="UTF-8"?>
<!DOCTYPE svg PUBLIC "-//W3C//DTD SVG 1.1//EN"
  "http://www.w3.org/Graphics/SVG/1.1/DTD/svg11.dtd">
<svg xmlns="http://www.w3.org/2000/svg" xmlns:xlink="http://www.w3.org/1999/xlink"   viewBox="0.00 0.00 300.00 200.00">
<!-- Created by OpenEye Scientific Software -->
<!-- Creation Date Tue Jun  5 16:25:04 2018 -->
<rect width="300.00" height="200.00" fill="white" />
<line x1="190.58" y1="186.18" x2="165.08" y2="180.84" stroke="black" stroke-width="2" stroke-linejoin="round" stroke-linecap="round" />
<line x1="187.55" y1="180.29" x2="170.21" y2="176.65" stroke="black" stroke-width="2" stroke-linejoin="round" stroke-linecap="round" />
<line x1="190.58" y1="186.18" x2="207.81" y2="166.82" stroke="black" stroke-width="2" stroke-linejoin="round" stroke-linecap="round" />
<line x1="207.81" y1="166.82" x2="199.80" y2="142.16" stroke="black" stroke-width="2" stroke-linejoin="round" stroke-linecap="round" />
<line x1="201.63" y1="164.46" x2="196.19" y2="147.70" stroke="black" stroke-width="2" stroke-linejoin="round" stroke-linecap="round" />
<line x1="199.80" y1="142.16" x2="174.30" y2="136.82" stroke="black" stroke-width="2" stroke-linejoin="round" stroke-linecap="round" />
<line x1="174.30" y1="136.82" x2="156.81" y2="156.13" stroke="black" stroke-width="2" stroke-linejoin="round" stroke-linecap="round" />
<line x1="175.32" y1="143.37" x2="163.42" y2="156.50" stroke="black" stroke-width="2" stroke-linejoin="round" stroke-linecap="round" />
<line x1="156.81" y1="156.13" x2="165.08" y2="180.84" stroke="black" stroke-width="2" stroke-linejoin="round" stroke-linecap="round" />
<line x1="170.29" y1="124.50" x2="174.30" y2="136.82" stroke="black" stroke-width="2" stroke-linejoin="round" stroke-linecap="round" />
<line x1="170.29" y1="124.50" x2="168.46" y2="118.83" stroke="blue" stroke-width="2" stroke-linejoin="round" stroke-linecap="round" />
<line x1="170.41" y1="106.50" x2="177.52" y2="96.72" stroke="blue" stroke-width="2" stroke-linejoin="round" stroke-linecap="round" />
<line x1="153.88" y1="108.14" x2="159.63" y2="110.00" stroke="blue" stroke-width="2" stroke-linejoin="round" stroke-linecap="round" />
<line x1="153.88" y1="108.14" x2="141.46" y2="104.10" stroke="black" stroke-width="2" stroke-linejoin="round" stroke-linecap="round" />
<line x1="130.22" y1="110.54" x2="141.46" y2="104.10" stroke="black" stroke-width="2" stroke-linejoin="round" stroke-linecap="round" />
<line x1="130.22" y1="110.54" x2="125.05" y2="113.49" stroke="blue" stroke-width="2" stroke-linejoin="round" stroke-linecap="round" />
<line x1="127.66" y1="106.07" x2="135.31" y2="101.69" stroke="black" stroke-width="2" stroke-linejoin="round" stroke-linecap="round" />
<line x1="127.66" y1="106.07" x2="120.01" y2="110.45" stroke="blue" stroke-width="2" stroke-linejoin="round" stroke-linecap="round" />
<line x1="141.46" y1="104.10" x2="141.46" y2="78.00" stroke="black" stroke-width="2" stroke-linejoin="round" stroke-linecap="round" />
<line x1="141.46" y1="78.00" x2="166.29" y2="69.94" stroke="black" stroke-width="2" stroke-linejoin="round" stroke-linecap="round" />
<line x1="173.96" y1="80.49" x2="166.29" y2="69.94" stroke="black" stroke-width="2" stroke-linejoin="round" stroke-linecap="round" />
<line x1="173.96" y1="80.49" x2="177.52" y2="85.38" stroke="blue" stroke-width="2" stroke-linejoin="round" stroke-linecap="round" />
<line x1="169.80" y1="83.52" x2="164.58" y2="76.34" stroke="black" stroke-width="2" stroke-linejoin="round" stroke-linecap="round" />
<line x1="169.80" y1="83.52" x2="175.02" y2="90.70" stroke="blue" stroke-width="2" stroke-linejoin="round" stroke-linecap="round" />
<line x1="141.46" y1="78.00" x2="118.97" y2="64.83" stroke="black" stroke-width="2" stroke-linejoin="round" stroke-linecap="round" />
<line x1="135.27" y1="80.33" x2="119.97" y2="71.38" stroke="black" stroke-width="2" stroke-linejoin="round" stroke-linecap="round" />
<line x1="107.72" y1="71.41" x2="118.97" y2="64.83" stroke="black" stroke-width="2" stroke-linejoin="round" stroke-linecap="round" />
<line x1="107.72" y1="71.41" x2="102.51" y2="74.46" stroke="blue" stroke-width="2" stroke-linejoin="round" stroke-linecap="round" />
<line x1="96.47" y1="91.03" x2="96.47" y2="85.00" stroke="blue" stroke-width="2" stroke-linejoin="round" stroke-linecap="round" />
<line x1="96.47" y1="91.03" x2="96.47" y2="104.07" stroke="black" stroke-width="2" stroke-linejoin="round" stroke-linecap="round" />
<line x1="101.61" y1="91.03" x2="101.61" y2="82.17" stroke="blue" stroke-width="2" stroke-linejoin="round" stroke-linecap="round" />
<line x1="101.61" y1="91.03" x2="101.61" y2="99.90" stroke="black" stroke-width="2" stroke-linejoin="round" stroke-linecap="round" />
<line x1="107.72" y1="110.52" x2="96.47" y2="104.07" stroke="black" stroke-width="2" stroke-linejoin="round" stroke-linecap="round" />
<line x1="107.72" y1="110.52" x2="112.89" y2="113.49" stroke="blue" stroke-width="2" stroke-linejoin="round" stroke-linecap="round" />
<line x1="118.97" y1="51.87" x2="118.97" y2="64.83" stroke="black" stroke-width="2" stroke-linejoin="round" stroke-linecap="round" />
<line x1="118.97" y1="51.87" x2="118.97" y2="45.92" stroke="blue" stroke-width="2" stroke-linejoin="round" stroke-linecap="round" />
<text x="166.29" y="115.80" fill="blue" font-family="Arial" font-size="11" font-style="normal" font-weight="normal" text-anchor="middle">  N </text>
<text x="181.64" y="94.68" fill="blue" font-family="Arial" font-size="11" font-style="normal" font-weight="normal" text-anchor="middle">  N </text>
<text x="96.47" y="81.63" fill="blue" font-family="Arial" font-size="11" font-style="normal" font-weight="normal" text-anchor="middle">  N </text>
<text x="118.97" y="120.60" fill="blue" font-family="Arial" font-size="11" font-style="normal" font-weight="normal" text-anchor="middle">  N </text>
<text x="118.97" y="42.54" fill="blue" font-family="Arial" font-size="11" font-style="normal" font-weight="normal" text-anchor="middle">  N </text>
<text x="126.67" y="42.54" fill="blue" font-family="Arial" font-size="11" font-style="normal" font-weight="normal" text-anchor="middle">  H </text>
<text x="132.32" y="43.64" fill="blue" font-family="Arial" font-size="6" font-style="normal" font-weight="normal" text-anchor="middle">  2 </text>
<text x="150.00" y="21.67" fill="black" font-family="Arial" font-size="20" font-style="normal" font-weight="normal" text-anchor="middle">  SM11 </text>
</svg>
