<?xml version="1.0" encoding="UTF-8"?>
<!DOCTYPE svg PUBLIC "-//W3C//DTD SVG 1.1//EN"
  "http://www.w3.org/Graphics/SVG/1.1/DTD/svg11.dtd">
<svg xmlns="http://www.w3.org/2000/svg" xmlns:xlink="http://www.w3.org/1999/xlink"   viewBox="0.00 0.00 300.00 200.00">
<!-- Created by OpenEye Scientific Software -->
<!-- Creation Date Tue Jun  5 16:25:04 2018 -->
<rect width="300.00" height="200.00" fill="white" />
<line x1="82.13" y1="74.41" x2="102.82" y2="86.27" stroke="black" stroke-width="2" stroke-linejoin="round" stroke-linecap="round" />
<line x1="87.84" y1="72.13" x2="101.90" y2="80.20" stroke="black" stroke-width="2" stroke-linejoin="round" stroke-linecap="round" />
<line x1="82.13" y1="74.41" x2="82.13" y2="50.45" stroke="black" stroke-width="2" stroke-linejoin="round" stroke-linecap="round" />
<line x1="82.13" y1="50.45" x2="102.82" y2="38.34" stroke="black" stroke-width="2" stroke-linejoin="round" stroke-linecap="round" />
<line x1="87.87" y1="52.66" x2="101.94" y2="44.43" stroke="black" stroke-width="2" stroke-linejoin="round" stroke-linecap="round" />
<line x1="102.82" y1="38.34" x2="123.50" y2="50.45" stroke="black" stroke-width="2" stroke-linejoin="round" stroke-linecap="round" />
<line x1="133.82" y1="44.41" x2="123.50" y2="50.45" stroke="black" stroke-width="2" stroke-linejoin="round" stroke-linecap="round" />
<line x1="133.82" y1="44.41" x2="138.48" y2="41.68" stroke="blue" stroke-width="2" stroke-linejoin="round" stroke-linecap="round" />
<line x1="136.25" y1="48.56" x2="129.23" y2="52.67" stroke="black" stroke-width="2" stroke-linejoin="round" stroke-linecap="round" />
<line x1="136.25" y1="48.56" x2="143.26" y2="44.46" stroke="blue" stroke-width="2" stroke-linejoin="round" stroke-linecap="round" />
<line x1="123.50" y1="50.45" x2="123.53" y2="74.41" stroke="black" stroke-width="2" stroke-linejoin="round" stroke-linecap="round" />
<line x1="123.53" y1="74.41" x2="102.82" y2="86.27" stroke="black" stroke-width="2" stroke-linejoin="round" stroke-linecap="round" />
<line x1="123.53" y1="74.41" x2="144.19" y2="86.30" stroke="black" stroke-width="2" stroke-linejoin="round" stroke-linecap="round" />
<line x1="129.24" y1="72.14" x2="143.29" y2="80.23" stroke="black" stroke-width="2" stroke-linejoin="round" stroke-linecap="round" />
<line x1="154.57" y1="80.33" x2="144.19" y2="86.30" stroke="black" stroke-width="2" stroke-linejoin="round" stroke-linecap="round" />
<line x1="154.57" y1="80.33" x2="159.27" y2="77.62" stroke="blue" stroke-width="2" stroke-linejoin="round" stroke-linecap="round" />
<line x1="164.93" y1="62.37" x2="164.94" y2="67.81" stroke="blue" stroke-width="2" stroke-linejoin="round" stroke-linecap="round" />
<line x1="164.93" y1="62.37" x2="164.92" y2="50.39" stroke="black" stroke-width="2" stroke-linejoin="round" stroke-linecap="round" />
<line x1="160.12" y1="62.38" x2="160.13" y2="70.53" stroke="blue" stroke-width="2" stroke-linejoin="round" stroke-linecap="round" />
<line x1="160.12" y1="62.38" x2="160.11" y2="54.23" stroke="black" stroke-width="2" stroke-linejoin="round" stroke-linecap="round" />
<line x1="154.52" y1="44.38" x2="164.92" y2="50.39" stroke="black" stroke-width="2" stroke-linejoin="round" stroke-linecap="round" />
<line x1="154.52" y1="44.38" x2="149.80" y2="41.65" stroke="blue" stroke-width="2" stroke-linejoin="round" stroke-linecap="round" />
<line x1="144.19" y1="98.22" x2="144.19" y2="86.30" stroke="black" stroke-width="2" stroke-linejoin="round" stroke-linecap="round" />
<line x1="144.19" y1="98.22" x2="144.19" y2="103.59" stroke="blue" stroke-width="2" stroke-linejoin="round" stroke-linecap="round" />
<line x1="133.87" y1="116.09" x2="138.52" y2="113.41" stroke="blue" stroke-width="2" stroke-linejoin="round" stroke-linecap="round" />
<line x1="133.87" y1="116.09" x2="123.55" y2="122.05" stroke="black" stroke-width="2" stroke-linejoin="round" stroke-linecap="round" />
<line x1="123.55" y1="122.05" x2="123.62" y2="146.01" stroke="black" stroke-width="2" stroke-linejoin="round" stroke-linecap="round" />
<line x1="118.74" y1="125.90" x2="118.79" y2="142.19" stroke="black" stroke-width="2" stroke-linejoin="round" stroke-linecap="round" />
<line x1="123.55" y1="122.05" x2="102.84" y2="110.01" stroke="black" stroke-width="2" stroke-linejoin="round" stroke-linecap="round" />
<line x1="102.84" y1="110.01" x2="82.19" y2="121.92" stroke="black" stroke-width="2" stroke-linejoin="round" stroke-linecap="round" />
<line x1="101.94" y1="116.08" x2="87.90" y2="124.19" stroke="black" stroke-width="2" stroke-linejoin="round" stroke-linecap="round" />
<line x1="82.19" y1="121.92" x2="82.05" y2="145.76" stroke="black" stroke-width="2" stroke-linejoin="round" stroke-linecap="round" />
<line x1="82.05" y1="145.76" x2="102.76" y2="157.80" stroke="black" stroke-width="2" stroke-linejoin="round" stroke-linecap="round" />
<line x1="87.79" y1="143.52" x2="101.87" y2="151.71" stroke="black" stroke-width="2" stroke-linejoin="round" stroke-linecap="round" />
<line x1="102.76" y1="157.80" x2="123.62" y2="146.01" stroke="black" stroke-width="2" stroke-linejoin="round" stroke-linecap="round" />
<line x1="102.69" y1="169.71" x2="102.76" y2="157.80" stroke="black" stroke-width="2" stroke-linejoin="round" stroke-linecap="round" />
<line x1="102.69" y1="169.71" x2="102.67" y2="173.39" stroke="#82d700" stroke-width="2" stroke-linejoin="round" stroke-linecap="round" />
<text x="164.95" y="77.66" fill="blue" font-family="Arial" font-size="10" font-style="normal" font-weight="normal" text-anchor="middle">  N </text>
<text x="144.13" y="41.67" fill="blue" font-family="Arial" font-size="10" font-style="normal" font-weight="normal" text-anchor="middle">  N </text>
<text x="144.19" y="113.44" fill="blue" font-family="Arial" font-size="10" font-style="normal" font-weight="normal" text-anchor="middle">  N </text>
<text x="151.19" y="113.44" fill="blue" font-family="Arial" font-size="10" font-style="normal" font-weight="normal" text-anchor="middle">  H </text>
<text x="102.62" y="184.93" fill="#82d700" font-family="Arial" font-size="10" font-style="normal" font-weight="normal" text-anchor="middle">  Cl </text>
<text x="212.61" y="113.29" fill="#82d700" font-family="Arial" font-size="10" font-style="normal" font-weight="normal" text-anchor="middle">  Cl </text>
<text x="204.31" y="113.29" fill="#82d700" font-family="Arial" font-size="10" font-style="normal" font-weight="normal" text-anchor="middle">  H </text>
<text x="150.00" y="21.67" fill="black" font-family="Arial" font-size="20" font-style="normal" font-weight="normal" text-anchor="middle">  SM12 </text>
</svg>
