<?xml version="1.0" encoding="UTF-8"?>
<!DOCTYPE svg PUBLIC "-//W3C//DTD SVG 1.1//EN"
  "http://www.w3.org/Graphics/SVG/1.1/DTD/svg11.dtd">
<svg xmlns="http://www.w3.org/2000/svg" xmlns:xlink="http://www.w3.org/1999/xlink"   viewBox="0.00 0.00 300.00 200.00">
<!-- Created by OpenEye Scientific Software -->
<!-- Creation Date Tue Jun  5 16:25:04 2018 -->
<rect width="300.00" height="200.00" fill="white" />
<line x1="103.72" y1="136.86" x2="126.86" y2="150.04" stroke="black" stroke-width="2" stroke-linejoin="round" stroke-linecap="round" />
<line x1="126.86" y1="150.04" x2="149.93" y2="136.45" stroke="black" stroke-width="2" stroke-linejoin="round" stroke-linecap="round" />
<line x1="133.22" y1="152.40" x2="148.91" y2="143.16" stroke="black" stroke-width="2" stroke-linejoin="round" stroke-linecap="round" />
<line x1="126.86" y1="150.04" x2="126.94" y2="176.82" stroke="black" stroke-width="2" stroke-linejoin="round" stroke-linecap="round" />
<line x1="126.94" y1="176.82" x2="150.08" y2="190.00" stroke="black" stroke-width="2" stroke-linejoin="round" stroke-linecap="round" />
<line x1="133.25" y1="174.35" x2="148.98" y2="183.32" stroke="black" stroke-width="2" stroke-linejoin="round" stroke-linecap="round" />
<line x1="150.08" y1="190.00" x2="173.15" y2="176.68" stroke="black" stroke-width="2" stroke-linejoin="round" stroke-linecap="round" />
<line x1="173.15" y1="176.68" x2="173.07" y2="149.91" stroke="black" stroke-width="2" stroke-linejoin="round" stroke-linecap="round" />
<line x1="167.88" y1="172.41" x2="167.82" y2="154.21" stroke="black" stroke-width="2" stroke-linejoin="round" stroke-linecap="round" />
<line x1="173.07" y1="149.91" x2="149.93" y2="136.45" stroke="black" stroke-width="2" stroke-linejoin="round" stroke-linecap="round" />
<line x1="184.61" y1="143.25" x2="173.07" y2="149.91" stroke="black" stroke-width="2" stroke-linejoin="round" stroke-linecap="round" />
<line x1="184.61" y1="143.25" x2="190.07" y2="140.10" stroke="blue" stroke-width="2" stroke-linejoin="round" stroke-linecap="round" />
<line x1="196.14" y1="123.28" x2="196.14" y2="129.59" stroke="blue" stroke-width="2" stroke-linejoin="round" stroke-linecap="round" />
<line x1="196.14" y1="123.28" x2="196.14" y2="109.96" stroke="black" stroke-width="2" stroke-linejoin="round" stroke-linecap="round" />
<line x1="207.74" y1="103.28" x2="196.14" y2="109.96" stroke="black" stroke-width="2" stroke-linejoin="round" stroke-linecap="round" />
<line x1="207.74" y1="103.28" x2="213.27" y2="100.10" stroke="blue" stroke-width="2" stroke-linejoin="round" stroke-linecap="round" />
<line x1="205.12" y1="98.72" x2="197.23" y2="103.26" stroke="black" stroke-width="2" stroke-linejoin="round" stroke-linecap="round" />
<line x1="205.12" y1="98.72" x2="213.01" y2="94.18" stroke="blue" stroke-width="2" stroke-linejoin="round" stroke-linecap="round" />
<line x1="196.14" y1="109.96" x2="173.06" y2="96.67" stroke="black" stroke-width="2" stroke-linejoin="round" stroke-linecap="round" />
<line x1="173.06" y1="96.67" x2="173.02" y2="69.89" stroke="black" stroke-width="2" stroke-linejoin="round" stroke-linecap="round" />
<line x1="178.31" y1="92.38" x2="178.29" y2="74.16" stroke="black" stroke-width="2" stroke-linejoin="round" stroke-linecap="round" />
<line x1="173.06" y1="96.67" x2="149.91" y2="109.93" stroke="black" stroke-width="2" stroke-linejoin="round" stroke-linecap="round" />
<line x1="149.91" y1="109.93" x2="126.79" y2="96.67" stroke="black" stroke-width="2" stroke-linejoin="round" stroke-linecap="round" />
<line x1="148.83" y1="103.24" x2="133.11" y2="94.23" stroke="black" stroke-width="2" stroke-linejoin="round" stroke-linecap="round" />
<line x1="126.79" y1="96.67" x2="126.79" y2="69.89" stroke="black" stroke-width="2" stroke-linejoin="round" stroke-linecap="round" />
<line x1="126.79" y1="69.89" x2="149.91" y2="56.36" stroke="black" stroke-width="2" stroke-linejoin="round" stroke-linecap="round" />
<line x1="133.15" y1="72.26" x2="148.87" y2="63.06" stroke="black" stroke-width="2" stroke-linejoin="round" stroke-linecap="round" />
<line x1="149.91" y1="56.36" x2="173.02" y2="69.89" stroke="black" stroke-width="2" stroke-linejoin="round" stroke-linecap="round" />
<line x1="184.55" y1="63.14" x2="173.02" y2="69.89" stroke="black" stroke-width="2" stroke-linejoin="round" stroke-linecap="round" />
<line x1="184.55" y1="63.14" x2="190.03" y2="59.93" stroke="blue" stroke-width="2" stroke-linejoin="round" stroke-linecap="round" />
<line x1="207.69" y1="63.11" x2="202.14" y2="59.90" stroke="blue" stroke-width="2" stroke-linejoin="round" stroke-linecap="round" />
<line x1="207.69" y1="63.11" x2="219.31" y2="69.82" stroke="black" stroke-width="2" stroke-linejoin="round" stroke-linecap="round" />
<line x1="205.06" y1="67.66" x2="197.16" y2="63.09" stroke="blue" stroke-width="2" stroke-linejoin="round" stroke-linecap="round" />
<line x1="205.06" y1="67.66" x2="212.96" y2="72.23" stroke="black" stroke-width="2" stroke-linejoin="round" stroke-linecap="round" />
<line x1="219.33" y1="83.22" x2="219.31" y2="69.82" stroke="black" stroke-width="2" stroke-linejoin="round" stroke-linecap="round" />
<line x1="219.33" y1="83.22" x2="219.33" y2="89.60" stroke="blue" stroke-width="2" stroke-linejoin="round" stroke-linecap="round" />
<line x1="115.24" y1="63.26" x2="126.79" y2="69.89" stroke="black" stroke-width="2" stroke-linejoin="round" stroke-linecap="round" />
<line x1="115.24" y1="63.26" x2="110.57" y2="60.58" stroke="red" stroke-width="2" stroke-linejoin="round" stroke-linecap="round" />
<line x1="103.65" y1="43.32" x2="103.66" y2="48.70" stroke="red" stroke-width="2" stroke-linejoin="round" stroke-linecap="round" />
<line x1="103.65" y1="43.32" x2="103.61" y2="30.00" stroke="black" stroke-width="2" stroke-linejoin="round" stroke-linecap="round" />
<line x1="115.27" y1="103.35" x2="126.79" y2="96.67" stroke="black" stroke-width="2" stroke-linejoin="round" stroke-linecap="round" />
<line x1="115.27" y1="103.35" x2="110.61" y2="106.04" stroke="red" stroke-width="2" stroke-linejoin="round" stroke-linecap="round" />
<line x1="92.20" y1="103.38" x2="96.87" y2="106.06" stroke="red" stroke-width="2" stroke-linejoin="round" stroke-linecap="round" />
<line x1="92.20" y1="103.38" x2="80.66" y2="96.74" stroke="black" stroke-width="2" stroke-linejoin="round" stroke-linecap="round" />
<text x="196.14" y="140.22" fill="blue" font-family="Arial" font-size="11" font-style="normal" font-weight="normal" text-anchor="middle">  N </text>
<text x="203.84" y="140.22" fill="blue" font-family="Arial" font-size="11" font-style="normal" font-weight="normal" text-anchor="middle">  H </text>
<text x="196.07" y="60.02" fill="blue" font-family="Arial" font-size="11" font-style="normal" font-weight="normal" text-anchor="middle">  N </text>
<text x="219.34" y="100.24" fill="blue" font-family="Arial" font-size="11" font-style="normal" font-weight="normal" text-anchor="middle">  N </text>
<text x="103.68" y="60.27" fill="red" font-family="Arial" font-size="11" font-style="normal" font-weight="normal" text-anchor="middle">  O </text>
<text x="103.74" y="113.65" fill="red" font-family="Arial" font-size="11" font-style="normal" font-weight="normal" text-anchor="middle">  O </text>
<text x="150.00" y="21.67" fill="black" font-family="Arial" font-size="20" font-style="normal" font-weight="normal" text-anchor="middle">  SM13 </text>
</svg>
