<?xml version="1.0" encoding="UTF-8"?>
<!DOCTYPE svg PUBLIC "-//W3C//DTD SVG 1.1//EN"
  "http://www.w3.org/Graphics/SVG/1.1/DTD/svg11.dtd">
<svg xmlns="http://www.w3.org/2000/svg" xmlns:xlink="http://www.w3.org/1999/xlink"   viewBox="0.00 0.00 300.00 200.00">
<!-- Created by OpenEye Scientific Software -->
<!-- Creation Date Tue Jun  5 16:25:04 2018 -->
<rect width="300.00" height="200.00" fill="white" />
<line x1="217.90" y1="33.78" x2="238.84" y2="56.90" stroke="black" stroke-width="2" stroke-linejoin="round" stroke-linecap="round" />
<line x1="216.83" y1="41.48" x2="231.07" y2="57.20" stroke="black" stroke-width="2" stroke-linejoin="round" stroke-linecap="round" />
<line x1="217.90" y1="33.78" x2="187.59" y2="40.41" stroke="black" stroke-width="2" stroke-linejoin="round" stroke-linecap="round" />
<line x1="187.59" y1="40.41" x2="178.00" y2="69.92" stroke="black" stroke-width="2" stroke-linejoin="round" stroke-linecap="round" />
<line x1="191.73" y1="46.97" x2="185.21" y2="67.04" stroke="black" stroke-width="2" stroke-linejoin="round" stroke-linecap="round" />
<line x1="178.00" y1="69.92" x2="198.94" y2="93.03" stroke="black" stroke-width="2" stroke-linejoin="round" stroke-linecap="round" />
<line x1="198.94" y1="93.03" x2="229.46" y2="86.64" stroke="black" stroke-width="2" stroke-linejoin="round" stroke-linecap="round" />
<line x1="202.60" y1="86.17" x2="223.36" y2="81.83" stroke="black" stroke-width="2" stroke-linejoin="round" stroke-linecap="round" />
<line x1="229.46" y1="86.64" x2="238.84" y2="56.90" stroke="black" stroke-width="2" stroke-linejoin="round" stroke-linecap="round" />
<line x1="194.14" y1="107.79" x2="198.94" y2="93.03" stroke="black" stroke-width="2" stroke-linejoin="round" stroke-linecap="round" />
<line x1="194.14" y1="107.79" x2="191.80" y2="115.02" stroke="blue" stroke-width="2" stroke-linejoin="round" stroke-linecap="round" />
<line x1="174.49" y1="127.37" x2="181.82" y2="124.99" stroke="blue" stroke-width="2" stroke-linejoin="round" stroke-linecap="round" />
<line x1="174.49" y1="127.37" x2="159.63" y2="132.19" stroke="black" stroke-width="2" stroke-linejoin="round" stroke-linecap="round" />
<line x1="198.53" y1="135.18" x2="194.00" y2="128.95" stroke="blue" stroke-width="2" stroke-linejoin="round" stroke-linecap="round" />
<line x1="198.53" y1="135.18" x2="207.72" y2="147.82" stroke="black" stroke-width="2" stroke-linejoin="round" stroke-linecap="round" />
<line x1="198.53" y1="160.46" x2="207.72" y2="147.82" stroke="black" stroke-width="2" stroke-linejoin="round" stroke-linecap="round" />
<line x1="198.53" y1="160.46" x2="194.00" y2="166.70" stroke="blue" stroke-width="2" stroke-linejoin="round" stroke-linecap="round" />
<line x1="193.71" y1="156.95" x2="199.95" y2="148.36" stroke="black" stroke-width="2" stroke-linejoin="round" stroke-linecap="round" />
<line x1="193.71" y1="156.95" x2="187.46" y2="165.55" stroke="blue" stroke-width="2" stroke-linejoin="round" stroke-linecap="round" />
<line x1="174.49" y1="168.27" x2="181.82" y2="170.66" stroke="blue" stroke-width="2" stroke-linejoin="round" stroke-linecap="round" />
<line x1="174.49" y1="168.27" x2="159.63" y2="163.44" stroke="black" stroke-width="2" stroke-linejoin="round" stroke-linecap="round" />
<line x1="159.63" y1="163.44" x2="132.70" y2="178.85" stroke="black" stroke-width="2" stroke-linejoin="round" stroke-linecap="round" />
<line x1="152.36" y1="160.73" x2="134.04" y2="171.21" stroke="black" stroke-width="2" stroke-linejoin="round" stroke-linecap="round" />
<line x1="159.63" y1="163.44" x2="159.63" y2="132.19" stroke="black" stroke-width="2" stroke-linejoin="round" stroke-linecap="round" />
<line x1="159.63" y1="132.19" x2="132.70" y2="116.43" stroke="black" stroke-width="2" stroke-linejoin="round" stroke-linecap="round" />
<line x1="152.31" y1="134.82" x2="133.99" y2="124.10" stroke="black" stroke-width="2" stroke-linejoin="round" stroke-linecap="round" />
<line x1="132.70" y1="116.43" x2="105.76" y2="132.19" stroke="black" stroke-width="2" stroke-linejoin="round" stroke-linecap="round" />
<line x1="105.76" y1="132.19" x2="105.76" y2="163.40" stroke="black" stroke-width="2" stroke-linejoin="round" stroke-linecap="round" />
<line x1="111.73" y1="137.19" x2="111.73" y2="158.41" stroke="black" stroke-width="2" stroke-linejoin="round" stroke-linecap="round" />
<line x1="105.76" y1="163.40" x2="132.70" y2="178.85" stroke="black" stroke-width="2" stroke-linejoin="round" stroke-linecap="round" />
<line x1="92.34" y1="171.18" x2="105.76" y2="163.40" stroke="black" stroke-width="2" stroke-linejoin="round" stroke-linecap="round" />
<line x1="92.34" y1="171.18" x2="85.76" y2="174.99" stroke="blue" stroke-width="2" stroke-linejoin="round" stroke-linecap="round" />
<text x="189.35" y="126.83" fill="blue" font-family="Arial" font-size="13" font-style="normal" font-weight="normal" text-anchor="middle">  N </text>
<text x="189.35" y="177.39" fill="blue" font-family="Arial" font-size="13" font-style="normal" font-weight="normal" text-anchor="middle">  N </text>
<text x="78.91" y="183.24" fill="blue" font-family="Arial" font-size="13" font-style="normal" font-weight="normal" text-anchor="middle">  N </text>
<text x="66.21" y="183.24" fill="blue" font-family="Arial" font-size="13" font-style="normal" font-weight="normal" text-anchor="middle">  H </text>
<text x="72.56" y="184.54" fill="blue" font-family="Arial" font-size="6" font-style="normal" font-weight="normal" text-anchor="middle">  2 </text>
<text x="150.00" y="21.67" fill="black" font-family="Arial" font-size="20" font-style="normal" font-weight="normal" text-anchor="middle">  SM14 </text>
</svg>
