<?xml version="1.0" encoding="UTF-8"?>
<!DOCTYPE svg PUBLIC "-//W3C//DTD SVG 1.1//EN"
  "http://www.w3.org/Graphics/SVG/1.1/DTD/svg11.dtd">
<svg xmlns="http://www.w3.org/2000/svg" xmlns:xlink="http://www.w3.org/1999/xlink"   viewBox="0.00 0.00 300.00 200.00">
<!-- Created by OpenEye Scientific Software -->
<!-- Creation Date Tue Jun  5 16:25:04 2018 -->
<rect width="300.00" height="200.00" fill="white" />
<line x1="92.16" y1="172.91" x2="114.86" y2="185.93" stroke="black" stroke-width="2" stroke-linejoin="round" stroke-linecap="round" />
<line x1="98.37" y1="170.50" x2="113.80" y2="179.35" stroke="black" stroke-width="2" stroke-linejoin="round" stroke-linecap="round" />
<line x1="92.16" y1="172.91" x2="92.16" y2="146.61" stroke="black" stroke-width="2" stroke-linejoin="round" stroke-linecap="round" />
<line x1="92.16" y1="146.61" x2="114.86" y2="133.33" stroke="black" stroke-width="2" stroke-linejoin="round" stroke-linecap="round" />
<line x1="98.41" y1="148.96" x2="113.84" y2="139.93" stroke="black" stroke-width="2" stroke-linejoin="round" stroke-linecap="round" />
<line x1="114.86" y1="133.33" x2="137.55" y2="146.61" stroke="black" stroke-width="2" stroke-linejoin="round" stroke-linecap="round" />
<line x1="150.07" y1="142.55" x2="137.55" y2="146.61" stroke="black" stroke-width="2" stroke-linejoin="round" stroke-linecap="round" />
<line x1="150.07" y1="142.55" x2="155.93" y2="140.64" stroke="blue" stroke-width="2" stroke-linejoin="round" stroke-linecap="round" />
<line x1="137.55" y1="146.61" x2="137.55" y2="172.95" stroke="black" stroke-width="2" stroke-linejoin="round" stroke-linecap="round" />
<line x1="142.74" y1="150.83" x2="142.74" y2="168.73" stroke="black" stroke-width="2" stroke-linejoin="round" stroke-linecap="round" />
<line x1="137.55" y1="172.95" x2="114.86" y2="185.93" stroke="black" stroke-width="2" stroke-linejoin="round" stroke-linecap="round" />
<line x1="150.07" y1="177.02" x2="137.55" y2="172.95" stroke="black" stroke-width="2" stroke-linejoin="round" stroke-linecap="round" />
<line x1="150.07" y1="177.02" x2="155.93" y2="178.92" stroke="blue" stroke-width="2" stroke-linejoin="round" stroke-linecap="round" />
<line x1="170.34" y1="170.43" x2="166.71" y2="175.42" stroke="blue" stroke-width="2" stroke-linejoin="round" stroke-linecap="round" />
<line x1="170.34" y1="170.43" x2="178.08" y2="159.78" stroke="black" stroke-width="2" stroke-linejoin="round" stroke-linecap="round" />
<line x1="166.14" y1="167.39" x2="160.88" y2="174.63" stroke="blue" stroke-width="2" stroke-linejoin="round" stroke-linecap="round" />
<line x1="166.14" y1="167.39" x2="171.41" y2="160.14" stroke="black" stroke-width="2" stroke-linejoin="round" stroke-linecap="round" />
<line x1="170.34" y1="149.13" x2="178.08" y2="159.78" stroke="black" stroke-width="2" stroke-linejoin="round" stroke-linecap="round" />
<line x1="170.34" y1="149.13" x2="166.71" y2="144.15" stroke="blue" stroke-width="2" stroke-linejoin="round" stroke-linecap="round" />
<line x1="166.64" y1="126.05" x2="164.76" y2="131.82" stroke="blue" stroke-width="2" stroke-linejoin="round" stroke-linecap="round" />
<line x1="166.64" y1="126.05" x2="170.68" y2="113.61" stroke="black" stroke-width="2" stroke-linejoin="round" stroke-linecap="round" />
<line x1="170.68" y1="113.61" x2="153.12" y2="94.05" stroke="black" stroke-width="2" stroke-linejoin="round" stroke-linecap="round" />
<line x1="171.73" y1="107.02" x2="159.79" y2="93.72" stroke="black" stroke-width="2" stroke-linejoin="round" stroke-linecap="round" />
<line x1="170.68" y1="113.61" x2="196.25" y2="108.14" stroke="black" stroke-width="2" stroke-linejoin="round" stroke-linecap="round" />
<line x1="196.25" y1="108.14" x2="204.44" y2="83.31" stroke="black" stroke-width="2" stroke-linejoin="round" stroke-linecap="round" />
<line x1="192.63" y1="102.54" x2="198.20" y2="85.66" stroke="black" stroke-width="2" stroke-linejoin="round" stroke-linecap="round" />
<line x1="204.44" y1="83.31" x2="186.88" y2="63.75" stroke="black" stroke-width="2" stroke-linejoin="round" stroke-linecap="round" />
<line x1="186.88" y1="63.75" x2="161.13" y2="69.02" stroke="black" stroke-width="2" stroke-linejoin="round" stroke-linecap="round" />
<line x1="183.80" y1="69.67" x2="166.29" y2="73.26" stroke="black" stroke-width="2" stroke-linejoin="round" stroke-linecap="round" />
<line x1="161.13" y1="69.02" x2="153.12" y2="94.05" stroke="black" stroke-width="2" stroke-linejoin="round" stroke-linecap="round" />
<line x1="190.97" y1="51.33" x2="186.88" y2="63.75" stroke="black" stroke-width="2" stroke-linejoin="round" stroke-linecap="round" />
<line x1="190.97" y1="51.33" x2="192.58" y2="46.45" stroke="red" stroke-width="2" stroke-linejoin="round" stroke-linecap="round" />
<text x="162.60" y="184.72" fill="blue" font-family="Arial" font-size="11" font-style="normal" font-weight="normal" text-anchor="middle">  N </text>
<text x="162.60" y="142.11" fill="blue" font-family="Arial" font-size="11" font-style="normal" font-weight="normal" text-anchor="middle">  N </text>
<text x="195.07" y="42.54" fill="red" font-family="Arial" font-size="11" font-style="normal" font-weight="normal" text-anchor="middle">  O </text>
<text x="203.48" y="42.54" fill="red" font-family="Arial" font-size="11" font-style="normal" font-weight="normal" text-anchor="middle">  H </text>
<text x="150.00" y="21.67" fill="black" font-family="Arial" font-size="20" font-style="normal" font-weight="normal" text-anchor="middle">  SM15 </text>
</svg>
