<?xml version="1.0" encoding="UTF-8"?>
<!DOCTYPE svg PUBLIC "-//W3C//DTD SVG 1.1//EN"
  "http://www.w3.org/Graphics/SVG/1.1/DTD/svg11.dtd">
<svg xmlns="http://www.w3.org/2000/svg" xmlns:xlink="http://www.w3.org/1999/xlink"   viewBox="0.00 0.00 300.00 200.00">
<!-- Created by OpenEye Scientific Software -->
<!-- Creation Date Tue Jun  5 16:25:04 2018 -->
<rect width="300.00" height="200.00" fill="white" />
<line x1="150.00" y1="186.13" x2="169.70" y2="174.83" stroke="black" stroke-width="2" stroke-linejoin="round" stroke-linecap="round" />
<line x1="150.85" y1="180.30" x2="164.24" y2="172.62" stroke="black" stroke-width="2" stroke-linejoin="round" stroke-linecap="round" />
<line x1="150.00" y1="186.13" x2="130.30" y2="174.83" stroke="black" stroke-width="2" stroke-linejoin="round" stroke-linecap="round" />
<line x1="130.30" y1="174.83" x2="130.30" y2="152.00" stroke="black" stroke-width="2" stroke-linejoin="round" stroke-linecap="round" />
<line x1="134.93" y1="171.18" x2="134.93" y2="155.66" stroke="black" stroke-width="2" stroke-linejoin="round" stroke-linecap="round" />
<line x1="130.30" y1="152.00" x2="150.00" y2="140.47" stroke="black" stroke-width="2" stroke-linejoin="round" stroke-linecap="round" />
<line x1="150.00" y1="140.47" x2="169.70" y2="152.00" stroke="black" stroke-width="2" stroke-linejoin="round" stroke-linecap="round" />
<line x1="150.81" y1="146.32" x2="164.21" y2="154.16" stroke="black" stroke-width="2" stroke-linejoin="round" stroke-linecap="round" />
<line x1="169.70" y1="152.00" x2="169.70" y2="174.83" stroke="black" stroke-width="2" stroke-linejoin="round" stroke-linecap="round" />
<line x1="179.55" y1="146.35" x2="169.70" y2="152.00" stroke="black" stroke-width="2" stroke-linejoin="round" stroke-linecap="round" />
<line x1="179.55" y1="146.35" x2="182.80" y2="144.49" stroke="#82d700" stroke-width="2" stroke-linejoin="round" stroke-linecap="round" />
<line x1="150.00" y1="140.47" x2="150.00" y2="117.76" stroke="black" stroke-width="2" stroke-linejoin="round" stroke-linecap="round" />
<line x1="160.99" y1="114.09" x2="151.16" y2="119.77" stroke="black" stroke-width="2" stroke-linejoin="round" stroke-linecap="round" />
<line x1="160.99" y1="114.09" x2="164.89" y2="111.84" stroke="red" stroke-width="2" stroke-linejoin="round" stroke-linecap="round" />
<line x1="158.68" y1="110.08" x2="148.84" y2="115.75" stroke="black" stroke-width="2" stroke-linejoin="round" stroke-linecap="round" />
<line x1="158.68" y1="110.08" x2="162.57" y2="107.83" stroke="red" stroke-width="2" stroke-linejoin="round" stroke-linecap="round" />
<line x1="140.17" y1="112.08" x2="150.00" y2="117.76" stroke="black" stroke-width="2" stroke-linejoin="round" stroke-linecap="round" />
<line x1="140.17" y1="112.08" x2="135.61" y2="109.45" stroke="blue" stroke-width="2" stroke-linejoin="round" stroke-linecap="round" />
<line x1="130.33" y1="95.05" x2="130.33" y2="100.31" stroke="blue" stroke-width="2" stroke-linejoin="round" stroke-linecap="round" />
<line x1="130.33" y1="95.05" x2="130.33" y2="83.69" stroke="black" stroke-width="2" stroke-linejoin="round" stroke-linecap="round" />
<line x1="130.33" y1="83.69" x2="150.03" y2="72.40" stroke="black" stroke-width="2" stroke-linejoin="round" stroke-linecap="round" />
<line x1="131.18" y1="77.87" x2="144.58" y2="70.18" stroke="black" stroke-width="2" stroke-linejoin="round" stroke-linecap="round" />
<line x1="130.33" y1="83.69" x2="110.63" y2="72.40" stroke="black" stroke-width="2" stroke-linejoin="round" stroke-linecap="round" />
<line x1="110.63" y1="72.40" x2="110.63" y2="49.57" stroke="black" stroke-width="2" stroke-linejoin="round" stroke-linecap="round" />
<line x1="115.26" y1="68.74" x2="115.26" y2="53.22" stroke="black" stroke-width="2" stroke-linejoin="round" stroke-linecap="round" />
<line x1="120.48" y1="43.80" x2="110.63" y2="49.57" stroke="black" stroke-width="2" stroke-linejoin="round" stroke-linecap="round" />
<line x1="120.48" y1="43.80" x2="125.07" y2="41.11" stroke="blue" stroke-width="2" stroke-linejoin="round" stroke-linecap="round" />
<line x1="140.18" y1="43.80" x2="135.59" y2="41.11" stroke="blue" stroke-width="2" stroke-linejoin="round" stroke-linecap="round" />
<line x1="140.18" y1="43.80" x2="150.03" y2="49.57" stroke="black" stroke-width="2" stroke-linejoin="round" stroke-linecap="round" />
<line x1="137.84" y1="47.80" x2="131.14" y2="43.88" stroke="blue" stroke-width="2" stroke-linejoin="round" stroke-linecap="round" />
<line x1="137.84" y1="47.80" x2="144.54" y2="51.72" stroke="black" stroke-width="2" stroke-linejoin="round" stroke-linecap="round" />
<line x1="150.03" y1="49.57" x2="150.03" y2="72.40" stroke="black" stroke-width="2" stroke-linejoin="round" stroke-linecap="round" />
<line x1="120.45" y1="146.35" x2="130.30" y2="152.00" stroke="black" stroke-width="2" stroke-linejoin="round" stroke-linecap="round" />
<line x1="120.45" y1="146.35" x2="117.20" y2="144.49" stroke="#82d700" stroke-width="2" stroke-linejoin="round" stroke-linecap="round" />
<text x="189.40" y="143.68" fill="#82d700" font-family="Arial" font-size="9" font-style="normal" font-weight="normal" text-anchor="middle">  Cl </text>
<text x="169.67" y="109.38" fill="red" font-family="Arial" font-size="9" font-style="normal" font-weight="normal" text-anchor="middle">  O </text>
<text x="130.33" y="109.38" fill="blue" font-family="Arial" font-size="9" font-style="normal" font-weight="normal" text-anchor="middle">  N </text>
<text x="124.03" y="109.38" fill="blue" font-family="Arial" font-size="9" font-style="normal" font-weight="normal" text-anchor="middle">  H </text>
<text x="130.33" y="41.01" fill="blue" font-family="Arial" font-size="9" font-style="normal" font-weight="normal" text-anchor="middle">  N </text>
<text x="110.60" y="143.68" fill="#82d700" font-family="Arial" font-size="9" font-style="normal" font-weight="normal" text-anchor="middle">  Cl </text>
<text x="150.00" y="21.67" fill="black" font-family="Arial" font-size="20" font-style="normal" font-weight="normal" text-anchor="middle">  SM16 </text>
</svg>
