<?xml version="1.0" encoding="UTF-8"?>
<!DOCTYPE svg PUBLIC "-//W3C//DTD SVG 1.1//EN"
  "http://www.w3.org/Graphics/SVG/1.1/DTD/svg11.dtd">
<svg xmlns="http://www.w3.org/2000/svg" xmlns:xlink="http://www.w3.org/1999/xlink"   viewBox="0.00 0.00 300.00 200.00">
<!-- Created by OpenEye Scientific Software -->
<!-- Creation Date Tue Jun  5 16:25:04 2018 -->
<rect width="300.00" height="200.00" fill="white" />
<line x1="124.67" y1="184.66" x2="117.67" y2="169.12" stroke="black" stroke-width="2" stroke-linejoin="round" stroke-linecap="round" />
<line x1="126.94" y1="180.64" x2="122.17" y2="170.08" stroke="black" stroke-width="2" stroke-linejoin="round" stroke-linecap="round" />
<line x1="124.67" y1="184.66" x2="141.55" y2="186.30" stroke="black" stroke-width="2" stroke-linejoin="round" stroke-linecap="round" />
<line x1="141.55" y1="186.30" x2="151.48" y2="172.57" stroke="black" stroke-width="2" stroke-linejoin="round" stroke-linecap="round" />
<line x1="140.13" y1="181.92" x2="146.89" y2="172.59" stroke="black" stroke-width="2" stroke-linejoin="round" stroke-linecap="round" />
<line x1="151.48" y1="172.57" x2="144.48" y2="157.03" stroke="black" stroke-width="2" stroke-linejoin="round" stroke-linecap="round" />
<line x1="144.48" y1="157.03" x2="127.54" y2="155.23" stroke="black" stroke-width="2" stroke-linejoin="round" stroke-linecap="round" />
<line x1="141.38" y1="160.44" x2="129.86" y2="159.21" stroke="black" stroke-width="2" stroke-linejoin="round" stroke-linecap="round" />
<line x1="127.54" y1="155.23" x2="117.67" y2="169.12" stroke="black" stroke-width="2" stroke-linejoin="round" stroke-linecap="round" />
<line x1="144.48" y1="157.03" x2="154.42" y2="143.30" stroke="black" stroke-width="2" stroke-linejoin="round" stroke-linecap="round" />
<line x1="150.96" y1="135.56" x2="154.42" y2="143.30" stroke="black" stroke-width="2" stroke-linejoin="round" stroke-linecap="round" />
<line x1="150.96" y1="135.56" x2="149.61" y2="132.56" stroke="#ebc80a" stroke-width="2" stroke-linejoin="round" stroke-linecap="round" />
<line x1="152.47" y1="120.96" x2="150.54" y2="123.63" stroke="#ebc80a" stroke-width="2" stroke-linejoin="round" stroke-linecap="round" />
<line x1="152.47" y1="120.96" x2="157.43" y2="114.10" stroke="black" stroke-width="2" stroke-linejoin="round" stroke-linecap="round" />
<line x1="154.78" y1="106.05" x2="157.43" y2="114.10" stroke="black" stroke-width="2" stroke-linejoin="round" stroke-linecap="round" />
<line x1="154.78" y1="106.05" x2="153.93" y2="103.48" stroke="red" stroke-width="2" stroke-linejoin="round" stroke-linecap="round" />
<line x1="165.91" y1="114.11" x2="157.43" y2="114.10" stroke="black" stroke-width="2" stroke-linejoin="round" stroke-linecap="round" />
<line x1="165.91" y1="114.11" x2="169.20" y2="114.11" stroke="blue" stroke-width="2" stroke-linejoin="round" stroke-linecap="round" />
<line x1="165.91" y1="110.39" x2="160.15" y2="110.39" stroke="black" stroke-width="2" stroke-linejoin="round" stroke-linecap="round" />
<line x1="165.91" y1="110.39" x2="171.68" y2="110.40" stroke="blue" stroke-width="2" stroke-linejoin="round" stroke-linecap="round" />
<line x1="175.98" y1="109.18" x2="178.01" y2="102.90" stroke="blue" stroke-width="2" stroke-linejoin="round" stroke-linecap="round" />
<line x1="172.75" y1="92.97" x2="175.42" y2="94.91" stroke="blue" stroke-width="2" stroke-linejoin="round" stroke-linecap="round" />
<line x1="172.75" y1="92.97" x2="165.88" y2="87.97" stroke="black" stroke-width="2" stroke-linejoin="round" stroke-linecap="round" />
<line x1="170.56" y1="95.97" x2="175.23" y2="99.37" stroke="blue" stroke-width="2" stroke-linejoin="round" stroke-linecap="round" />
<line x1="170.56" y1="95.97" x2="165.89" y2="92.57" stroke="black" stroke-width="2" stroke-linejoin="round" stroke-linecap="round" />
<line x1="159.00" y1="92.98" x2="165.88" y2="87.97" stroke="black" stroke-width="2" stroke-linejoin="round" stroke-linecap="round" />
<line x1="159.00" y1="92.98" x2="156.79" y2="94.59" stroke="red" stroke-width="2" stroke-linejoin="round" stroke-linecap="round" />
<line x1="165.88" y1="87.97" x2="165.88" y2="71.02" stroke="black" stroke-width="2" stroke-linejoin="round" stroke-linecap="round" />
<line x1="165.88" y1="71.02" x2="180.59" y2="62.59" stroke="black" stroke-width="2" stroke-linejoin="round" stroke-linecap="round" />
<line x1="166.39" y1="66.45" x2="176.39" y2="60.72" stroke="black" stroke-width="2" stroke-linejoin="round" stroke-linecap="round" />
<line x1="165.88" y1="71.02" x2="151.18" y2="62.59" stroke="black" stroke-width="2" stroke-linejoin="round" stroke-linecap="round" />
<line x1="151.18" y1="62.59" x2="151.18" y2="45.55" stroke="black" stroke-width="2" stroke-linejoin="round" stroke-linecap="round" />
<line x1="154.89" y1="59.86" x2="154.89" y2="48.27" stroke="black" stroke-width="2" stroke-linejoin="round" stroke-linecap="round" />
<line x1="158.53" y1="41.25" x2="151.18" y2="45.55" stroke="black" stroke-width="2" stroke-linejoin="round" stroke-linecap="round" />
<line x1="158.53" y1="41.25" x2="161.41" y2="39.56" stroke="blue" stroke-width="2" stroke-linejoin="round" stroke-linecap="round" />
<line x1="173.24" y1="41.25" x2="170.36" y2="39.56" stroke="blue" stroke-width="2" stroke-linejoin="round" stroke-linecap="round" />
<line x1="173.24" y1="41.25" x2="180.59" y2="45.55" stroke="black" stroke-width="2" stroke-linejoin="round" stroke-linecap="round" />
<line x1="171.36" y1="44.45" x2="166.36" y2="41.52" stroke="blue" stroke-width="2" stroke-linejoin="round" stroke-linecap="round" />
<line x1="171.36" y1="44.45" x2="176.36" y2="47.38" stroke="black" stroke-width="2" stroke-linejoin="round" stroke-linecap="round" />
<line x1="180.59" y1="45.55" x2="180.59" y2="62.59" stroke="black" stroke-width="2" stroke-linejoin="round" stroke-linecap="round" />
<text x="147.50" y="130.14" fill="#ebc80a" font-family="Arial" font-size="7" font-style="normal" font-weight="normal" text-anchor="middle">  S </text>
<text x="174.38" y="116.43" fill="blue" font-family="Arial" font-size="7" font-style="normal" font-weight="normal" text-anchor="middle">  N </text>
<text x="179.61" y="100.27" fill="blue" font-family="Arial" font-size="7" font-style="normal" font-weight="normal" text-anchor="middle">  N </text>
<text x="152.12" y="100.30" fill="red" font-family="Arial" font-size="7" font-style="normal" font-weight="normal" text-anchor="middle">  O </text>
<text x="165.88" y="39.25" fill="blue" font-family="Arial" font-size="7" font-style="normal" font-weight="normal" text-anchor="middle">  N </text>
<text x="150.00" y="21.67" fill="black" font-family="Arial" font-size="20" font-style="normal" font-weight="normal" text-anchor="middle">  SM17 </text>
</svg>
