<?xml version="1.0" encoding="UTF-8"?>
<!DOCTYPE svg PUBLIC "-//W3C//DTD SVG 1.1//EN"
  "http://www.w3.org/Graphics/SVG/1.1/DTD/svg11.dtd">
<svg xmlns="http://www.w3.org/2000/svg" xmlns:xlink="http://www.w3.org/1999/xlink"   viewBox="0.00 0.00 300.00 200.00">
<!-- Created by OpenEye Scientific Software -->
<!-- Creation Date Tue Jun  5 16:25:04 2018 -->
<rect width="300.00" height="200.00" fill="white" />
<path d="M 169.51 92.23 L 187.23 100.10 C 189.66 101.18 192.38 100.59 194.15 98.60 L 206.99 84.19 C 208.74 82.22 209.02 79.49 207.71 77.20 L 198.07 60.48 C 196.75 58.18 194.21 57.05 191.62 57.61 L 172.72 61.66 C 170.13 62.21 168.29 64.26 168.01 66.90 L 165.98 86.12 C 165.70 88.76 167.08 91.16 169.51 92.23 Z" fill="none" stroke="#5e005e" stroke-width="2" stroke-linejoin="round" stroke-linecap="round" />
<line x1="21.35" y1="115.88" x2="38.10" y2="125.48" stroke="black" stroke-width="2" stroke-linejoin="round" stroke-linecap="round" />
<line x1="26.06" y1="113.87" x2="37.45" y2="120.40" stroke="black" stroke-width="2" stroke-linejoin="round" stroke-linecap="round" />
<line x1="21.35" y1="115.88" x2="21.35" y2="96.47" stroke="black" stroke-width="2" stroke-linejoin="round" stroke-linecap="round" />
<line x1="21.35" y1="96.47" x2="38.10" y2="86.67" stroke="black" stroke-width="2" stroke-linejoin="round" stroke-linecap="round" />
<line x1="26.09" y1="98.43" x2="37.48" y2="91.76" stroke="black" stroke-width="2" stroke-linejoin="round" stroke-linecap="round" />
<line x1="38.10" y1="86.67" x2="54.85" y2="96.47" stroke="black" stroke-width="2" stroke-linejoin="round" stroke-linecap="round" />
<line x1="63.20" y1="91.58" x2="54.85" y2="96.47" stroke="black" stroke-width="2" stroke-linejoin="round" stroke-linecap="round" />
<line x1="63.20" y1="91.58" x2="66.68" y2="89.54" stroke="blue" stroke-width="2" stroke-linejoin="round" stroke-linecap="round" />
<line x1="54.85" y1="96.47" x2="54.87" y2="115.88" stroke="black" stroke-width="2" stroke-linejoin="round" stroke-linecap="round" />
<line x1="58.94" y1="99.57" x2="58.96" y2="112.77" stroke="black" stroke-width="2" stroke-linejoin="round" stroke-linecap="round" />
<line x1="54.87" y1="115.88" x2="38.10" y2="125.48" stroke="black" stroke-width="2" stroke-linejoin="round" stroke-linecap="round" />
<line x1="54.87" y1="115.88" x2="71.60" y2="125.50" stroke="black" stroke-width="2" stroke-linejoin="round" stroke-linecap="round" />
<line x1="69.55" y1="135.15" x2="69.55" y2="125.50" stroke="black" stroke-width="2" stroke-linejoin="round" stroke-linecap="round" />
<line x1="69.55" y1="135.15" x2="69.55" y2="138.49" stroke="red" stroke-width="2" stroke-linejoin="round" stroke-linecap="round" />
<line x1="73.64" y1="135.15" x2="73.64" y2="125.50" stroke="black" stroke-width="2" stroke-linejoin="round" stroke-linecap="round" />
<line x1="73.64" y1="135.15" x2="73.64" y2="138.49" stroke="red" stroke-width="2" stroke-linejoin="round" stroke-linecap="round" />
<line x1="80.00" y1="120.67" x2="71.60" y2="125.50" stroke="black" stroke-width="2" stroke-linejoin="round" stroke-linecap="round" />
<line x1="80.00" y1="120.67" x2="83.52" y2="118.65" stroke="blue" stroke-width="2" stroke-linejoin="round" stroke-linecap="round" />
<line x1="88.39" y1="106.13" x2="88.40" y2="110.19" stroke="blue" stroke-width="2" stroke-linejoin="round" stroke-linecap="round" />
<line x1="88.39" y1="106.13" x2="88.38" y2="96.43" stroke="black" stroke-width="2" stroke-linejoin="round" stroke-linecap="round" />
<line x1="79.96" y1="91.56" x2="88.38" y2="96.43" stroke="black" stroke-width="2" stroke-linejoin="round" stroke-linecap="round" />
<line x1="79.96" y1="91.56" x2="76.43" y2="89.51" stroke="blue" stroke-width="2" stroke-linejoin="round" stroke-linecap="round" />
<line x1="77.92" y1="95.10" x2="83.64" y2="98.41" stroke="black" stroke-width="2" stroke-linejoin="round" stroke-linecap="round" />
<line x1="77.92" y1="95.10" x2="72.19" y2="91.79" stroke="blue" stroke-width="2" stroke-linejoin="round" stroke-linecap="round" />
<line x1="88.38" y1="96.43" x2="105.09" y2="86.77" stroke="black" stroke-width="2" stroke-linejoin="round" stroke-linecap="round" />
<line x1="105.09" y1="86.77" x2="121.81" y2="96.42" stroke="black" stroke-width="2" stroke-linejoin="round" stroke-linecap="round" />
<line x1="121.81" y1="96.42" x2="138.52" y2="86.76" stroke="black" stroke-width="2" stroke-linejoin="round" stroke-linecap="round" />
<line x1="140.56" y1="77.11" x2="140.56" y2="86.76" stroke="black" stroke-width="2" stroke-linejoin="round" stroke-linecap="round" />
<line x1="140.56" y1="77.11" x2="140.56" y2="73.78" stroke="red" stroke-width="2" stroke-linejoin="round" stroke-linecap="round" />
<line x1="136.47" y1="77.11" x2="136.47" y2="86.76" stroke="black" stroke-width="2" stroke-linejoin="round" stroke-linecap="round" />
<line x1="136.47" y1="77.11" x2="136.47" y2="73.78" stroke="red" stroke-width="2" stroke-linejoin="round" stroke-linecap="round" />
<line x1="146.88" y1="91.58" x2="138.52" y2="86.76" stroke="black" stroke-width="2" stroke-linejoin="round" stroke-linecap="round" />
<line x1="146.88" y1="91.58" x2="150.35" y2="93.59" stroke="blue" stroke-width="2" stroke-linejoin="round" stroke-linecap="round" />
<line x1="163.59" y1="91.58" x2="160.12" y2="93.58" stroke="blue" stroke-width="2" stroke-linejoin="round" stroke-linecap="round" />
<line x1="163.59" y1="91.58" x2="171.94" y2="86.75" stroke="black" stroke-width="2" stroke-linejoin="round" stroke-linecap="round" />
<line x1="180.80" y1="90.68" x2="171.94" y2="86.75" stroke="black" stroke-width="2" stroke-linejoin="round" stroke-linecap="round" />
<line x1="180.80" y1="90.68" x2="184.51" y2="92.33" stroke="#ebc80a" stroke-width="2" stroke-linejoin="round" stroke-linecap="round" />
<line x1="172.96" y1="77.14" x2="171.94" y2="86.75" stroke="black" stroke-width="2" stroke-linejoin="round" stroke-linecap="round" />
<line x1="172.96" y1="77.14" x2="173.38" y2="73.14" stroke="blue" stroke-width="2" stroke-linejoin="round" stroke-linecap="round" />
<line x1="177.03" y1="77.57" x2="176.33" y2="84.10" stroke="black" stroke-width="2" stroke-linejoin="round" stroke-linecap="round" />
<line x1="177.03" y1="77.57" x2="177.72" y2="71.03" stroke="blue" stroke-width="2" stroke-linejoin="round" stroke-linecap="round" />
<line x1="183.43" y1="65.50" x2="179.49" y2="66.34" stroke="blue" stroke-width="2" stroke-linejoin="round" stroke-linecap="round" />
<line x1="183.43" y1="65.50" x2="192.87" y2="63.48" stroke="black" stroke-width="2" stroke-linejoin="round" stroke-linecap="round" />
<line x1="192.87" y1="63.48" x2="202.51" y2="80.20" stroke="black" stroke-width="2" stroke-linejoin="round" stroke-linecap="round" />
<line x1="190.87" y1="68.19" x2="197.43" y2="79.56" stroke="black" stroke-width="2" stroke-linejoin="round" stroke-linecap="round" />
<line x1="196.09" y1="87.41" x2="202.51" y2="80.20" stroke="black" stroke-width="2" stroke-linejoin="round" stroke-linecap="round" />
<line x1="196.09" y1="87.41" x2="193.42" y2="90.40" stroke="#ebc80a" stroke-width="2" stroke-linejoin="round" stroke-linecap="round" />
<line x1="202.51" y1="80.20" x2="221.71" y2="82.17" stroke="black" stroke-width="2" stroke-linejoin="round" stroke-linecap="round" />
<line x1="221.71" y1="82.17" x2="229.59" y2="99.79" stroke="black" stroke-width="2" stroke-linejoin="round" stroke-linecap="round" />
<line x1="229.59" y1="99.79" x2="248.90" y2="101.72" stroke="black" stroke-width="2" stroke-linejoin="round" stroke-linecap="round" />
<line x1="232.28" y1="104.16" x2="245.40" y2="105.47" stroke="black" stroke-width="2" stroke-linejoin="round" stroke-linecap="round" />
<line x1="229.59" y1="99.79" x2="218.18" y2="115.47" stroke="black" stroke-width="2" stroke-linejoin="round" stroke-linecap="round" />
<line x1="218.18" y1="115.47" x2="226.07" y2="133.09" stroke="black" stroke-width="2" stroke-linejoin="round" stroke-linecap="round" />
<line x1="223.17" y1="116.62" x2="228.54" y2="128.60" stroke="black" stroke-width="2" stroke-linejoin="round" stroke-linecap="round" />
<line x1="226.07" y1="133.09" x2="245.25" y2="135.17" stroke="black" stroke-width="2" stroke-linejoin="round" stroke-linecap="round" />
<line x1="245.25" y1="135.17" x2="256.67" y2="119.49" stroke="black" stroke-width="2" stroke-linejoin="round" stroke-linecap="round" />
<line x1="243.77" y1="130.26" x2="251.54" y2="119.59" stroke="black" stroke-width="2" stroke-linejoin="round" stroke-linecap="round" />
<line x1="256.67" y1="119.49" x2="248.90" y2="101.72" stroke="black" stroke-width="2" stroke-linejoin="round" stroke-linecap="round" />
<line x1="266.26" y1="120.53" x2="256.67" y2="119.49" stroke="black" stroke-width="2" stroke-linejoin="round" stroke-linecap="round" />
<line x1="266.26" y1="120.53" x2="270.61" y2="121.01" stroke="#00cd00" stroke-width="2" stroke-linejoin="round" stroke-linecap="round" />
<line x1="249.16" y1="144.00" x2="245.25" y2="135.17" stroke="black" stroke-width="2" stroke-linejoin="round" stroke-linecap="round" />
<line x1="249.16" y1="144.00" x2="250.93" y2="148.00" stroke="#00cd00" stroke-width="2" stroke-linejoin="round" stroke-linecap="round" />
<text x="71.60" y="147.44" fill="red" font-family="Arial" font-size="8" font-style="normal" font-weight="normal" text-anchor="middle">  O </text>
<text x="88.41" y="118.47" fill="blue" font-family="Arial" font-size="8" font-style="normal" font-weight="normal" text-anchor="middle">  N </text>
<text x="94.01" y="118.47" fill="blue" font-family="Arial" font-size="8" font-style="normal" font-weight="normal" text-anchor="middle">  H </text>
<text x="71.55" y="89.33" fill="blue" font-family="Arial" font-size="8" font-style="normal" font-weight="normal" text-anchor="middle">  N </text>
<text x="138.51" y="70.10" fill="red" font-family="Arial" font-size="8" font-style="normal" font-weight="normal" text-anchor="middle">  O </text>
<text x="155.23" y="99.04" fill="blue" font-family="Arial" font-size="8" font-style="normal" font-weight="normal" text-anchor="middle">  N </text>
<text x="155.23" y="105.44" fill="blue" font-family="Arial" font-size="8" font-style="normal" font-weight="normal" text-anchor="middle">  H </text>
<text x="173.98" y="70.17" fill="blue" font-family="Arial" font-size="8" font-style="normal" font-weight="normal" text-anchor="middle">  N </text>
<text x="189.67" y="97.25" fill="#ebc80a" font-family="Arial" font-size="8" font-style="normal" font-weight="normal" text-anchor="middle">  S </text>
<text x="275.85" y="124.22" fill="#00cd00" font-family="Arial" font-size="8" font-style="normal" font-weight="normal" text-anchor="middle">  F </text>
<text x="253.06" y="155.46" fill="#00cd00" font-family="Arial" font-size="8" font-style="normal" font-weight="normal" text-anchor="middle">  F </text>
<text x="150.00" y="21.67" fill="black" font-family="Arial" font-size="20" font-style="normal" font-weight="normal" text-anchor="middle">  SM18 </text>
</svg>
