<?xml version="1.0" encoding="UTF-8"?>
<!DOCTYPE svg PUBLIC "-//W3C//DTD SVG 1.1//EN"
  "http://www.w3.org/Graphics/SVG/1.1/DTD/svg11.dtd">
<svg xmlns="http://www.w3.org/2000/svg" xmlns:xlink="http://www.w3.org/1999/xlink"   viewBox="0.00 0.00 300.00 200.00">
<!-- Created by OpenEye Scientific Software -->
<!-- Creation Date Tue Jun  5 16:25:04 2018 -->
<rect width="300.00" height="200.00" fill="white" />
<line x1="21.52" y1="50.96" x2="40.73" y2="61.97" stroke="black" stroke-width="2" stroke-linejoin="round" stroke-linecap="round" />
<line x1="50.31" y1="56.41" x2="40.73" y2="61.97" stroke="black" stroke-width="2" stroke-linejoin="round" stroke-linecap="round" />
<line x1="50.31" y1="56.41" x2="53.95" y2="54.29" stroke="red" stroke-width="2" stroke-linejoin="round" stroke-linecap="round" />
<line x1="69.49" y1="56.35" x2="65.83" y2="54.25" stroke="red" stroke-width="2" stroke-linejoin="round" stroke-linecap="round" />
<line x1="69.49" y1="56.35" x2="79.09" y2="61.86" stroke="black" stroke-width="2" stroke-linejoin="round" stroke-linecap="round" />
<line x1="79.09" y1="61.86" x2="98.32" y2="50.61" stroke="black" stroke-width="2" stroke-linejoin="round" stroke-linecap="round" />
<line x1="84.46" y1="63.98" x2="97.54" y2="56.33" stroke="black" stroke-width="2" stroke-linejoin="round" stroke-linecap="round" />
<line x1="79.09" y1="61.86" x2="79.09" y2="84.14" stroke="black" stroke-width="2" stroke-linejoin="round" stroke-linecap="round" />
<line x1="79.09" y1="84.14" x2="98.32" y2="95.16" stroke="black" stroke-width="2" stroke-linejoin="round" stroke-linecap="round" />
<line x1="84.43" y1="81.96" x2="97.50" y2="89.46" stroke="black" stroke-width="2" stroke-linejoin="round" stroke-linecap="round" />
<line x1="98.32" y1="95.16" x2="117.54" y2="84.16" stroke="black" stroke-width="2" stroke-linejoin="round" stroke-linecap="round" />
<line x1="128.15" y1="87.61" x2="117.54" y2="84.16" stroke="black" stroke-width="2" stroke-linejoin="round" stroke-linecap="round" />
<line x1="128.15" y1="87.61" x2="132.96" y2="89.17" stroke="blue" stroke-width="2" stroke-linejoin="round" stroke-linecap="round" />
<line x1="117.54" y1="84.16" x2="117.54" y2="61.86" stroke="black" stroke-width="2" stroke-linejoin="round" stroke-linecap="round" />
<line x1="113.00" y1="80.60" x2="113.00" y2="65.43" stroke="black" stroke-width="2" stroke-linejoin="round" stroke-linecap="round" />
<line x1="117.54" y1="61.86" x2="98.32" y2="50.61" stroke="black" stroke-width="2" stroke-linejoin="round" stroke-linecap="round" />
<line x1="128.15" y1="58.42" x2="117.54" y2="61.86" stroke="black" stroke-width="2" stroke-linejoin="round" stroke-linecap="round" />
<line x1="128.15" y1="58.42" x2="132.96" y2="56.85" stroke="#ebc80a" stroke-width="2" stroke-linejoin="round" stroke-linecap="round" />
<line x1="145.31" y1="63.99" x2="142.34" y2="59.90" stroke="#ebc80a" stroke-width="2" stroke-linejoin="round" stroke-linecap="round" />
<line x1="145.31" y1="63.99" x2="151.87" y2="73.01" stroke="black" stroke-width="2" stroke-linejoin="round" stroke-linecap="round" />
<line x1="145.31" y1="82.04" x2="151.87" y2="73.01" stroke="black" stroke-width="2" stroke-linejoin="round" stroke-linecap="round" />
<line x1="145.31" y1="82.04" x2="142.34" y2="86.13" stroke="blue" stroke-width="2" stroke-linejoin="round" stroke-linecap="round" />
<line x1="141.63" y1="79.37" x2="146.09" y2="73.23" stroke="black" stroke-width="2" stroke-linejoin="round" stroke-linecap="round" />
<line x1="141.63" y1="79.37" x2="137.18" y2="85.50" stroke="blue" stroke-width="2" stroke-linejoin="round" stroke-linecap="round" />
<line x1="162.94" y1="73.01" x2="151.87" y2="73.01" stroke="black" stroke-width="2" stroke-linejoin="round" stroke-linecap="round" />
<line x1="162.94" y1="73.01" x2="167.92" y2="73.01" stroke="blue" stroke-width="2" stroke-linejoin="round" stroke-linecap="round" />
<line x1="179.55" y1="82.60" x2="177.06" y2="78.29" stroke="blue" stroke-width="2" stroke-linejoin="round" stroke-linecap="round" />
<line x1="179.55" y1="82.60" x2="185.09" y2="92.19" stroke="black" stroke-width="2" stroke-linejoin="round" stroke-linecap="round" />
<line x1="177.58" y1="100.65" x2="183.12" y2="91.06" stroke="black" stroke-width="2" stroke-linejoin="round" stroke-linecap="round" />
<line x1="177.58" y1="100.65" x2="175.48" y2="104.30" stroke="red" stroke-width="2" stroke-linejoin="round" stroke-linecap="round" />
<line x1="181.52" y1="102.92" x2="187.06" y2="93.33" stroke="black" stroke-width="2" stroke-linejoin="round" stroke-linecap="round" />
<line x1="181.52" y1="102.92" x2="179.41" y2="106.57" stroke="red" stroke-width="2" stroke-linejoin="round" stroke-linecap="round" />
<line x1="185.09" y1="92.19" x2="207.24" y2="92.19" stroke="black" stroke-width="2" stroke-linejoin="round" stroke-linecap="round" />
<line x1="207.24" y1="92.19" x2="218.31" y2="111.37" stroke="black" stroke-width="2" stroke-linejoin="round" stroke-linecap="round" />
<line x1="218.31" y1="111.37" x2="240.57" y2="111.30" stroke="black" stroke-width="2" stroke-linejoin="round" stroke-linecap="round" />
<line x1="221.89" y1="115.90" x2="237.02" y2="115.86" stroke="black" stroke-width="2" stroke-linejoin="round" stroke-linecap="round" />
<line x1="218.31" y1="111.37" x2="207.12" y2="130.62" stroke="black" stroke-width="2" stroke-linejoin="round" stroke-linecap="round" />
<line x1="207.12" y1="130.62" x2="218.20" y2="149.80" stroke="black" stroke-width="2" stroke-linejoin="round" stroke-linecap="round" />
<line x1="212.83" y1="131.42" x2="220.36" y2="144.46" stroke="black" stroke-width="2" stroke-linejoin="round" stroke-linecap="round" />
<line x1="218.20" y1="149.80" x2="240.35" y2="149.93" stroke="black" stroke-width="2" stroke-linejoin="round" stroke-linecap="round" />
<line x1="240.35" y1="149.93" x2="251.53" y2="130.68" stroke="black" stroke-width="2" stroke-linejoin="round" stroke-linecap="round" />
<line x1="238.21" y1="144.56" x2="245.82" y2="131.48" stroke="black" stroke-width="2" stroke-linejoin="round" stroke-linecap="round" />
<line x1="251.53" y1="130.68" x2="240.57" y2="111.30" stroke="black" stroke-width="2" stroke-linejoin="round" stroke-linecap="round" />
<line x1="262.61" y1="130.74" x2="251.53" y2="130.68" stroke="black" stroke-width="2" stroke-linejoin="round" stroke-linecap="round" />
<line x1="262.61" y1="130.74" x2="266.07" y2="130.76" stroke="#82d700" stroke-width="2" stroke-linejoin="round" stroke-linecap="round" />
<line x1="245.84" y1="159.54" x2="240.35" y2="149.93" stroke="black" stroke-width="2" stroke-linejoin="round" stroke-linecap="round" />
<line x1="245.84" y1="159.54" x2="247.56" y2="162.54" stroke="#82d700" stroke-width="2" stroke-linejoin="round" stroke-linecap="round" />
<text x="59.88" y="53.81" fill="red" font-family="Arial" font-size="9" font-style="normal" font-weight="normal" text-anchor="middle">  O </text>
<text x="138.75" y="57.94" fill="#ebc80a" font-family="Arial" font-size="9" font-style="normal" font-weight="normal" text-anchor="middle">  S </text>
<text x="138.75" y="94.03" fill="blue" font-family="Arial" font-size="9" font-style="normal" font-weight="normal" text-anchor="middle">  N </text>
<text x="174.01" y="75.98" fill="blue" font-family="Arial" font-size="9" font-style="normal" font-weight="normal" text-anchor="middle">  N </text>
<text x="174.01" y="68.78" fill="blue" font-family="Arial" font-size="9" font-style="normal" font-weight="normal" text-anchor="middle">  H </text>
<text x="174.02" y="114.34" fill="red" font-family="Arial" font-size="9" font-style="normal" font-weight="normal" text-anchor="middle">  O </text>
<text x="273.68" y="133.78" fill="#82d700" font-family="Arial" font-size="9" font-style="normal" font-weight="normal" text-anchor="middle">  Cl </text>
<text x="251.34" y="172.13" fill="#82d700" font-family="Arial" font-size="9" font-style="normal" font-weight="normal" text-anchor="middle">  Cl </text>
<text x="150.00" y="21.67" fill="black" font-family="Arial" font-size="20" font-style="normal" font-weight="normal" text-anchor="middle">  SM19 </text>
</svg>
