<?xml version="1.0" encoding="UTF-8"?>
<!DOCTYPE svg PUBLIC "-//W3C//DTD SVG 1.1//EN"
  "http://www.w3.org/Graphics/SVG/1.1/DTD/svg11.dtd">
<svg xmlns="http://www.w3.org/2000/svg" xmlns:xlink="http://www.w3.org/1999/xlink"   viewBox="0.00 0.00 300.00 200.00">
<!-- Created by OpenEye Scientific Software -->
<!-- Creation Date Tue Jun  5 16:25:04 2018 -->
<rect width="300.00" height="200.00" fill="white" />
<line x1="165.65" y1="157.05" x2="144.05" y2="150.18" stroke="black" stroke-width="2" stroke-linejoin="round" stroke-linecap="round" />
<line x1="163.59" y1="151.54" x2="148.91" y2="146.87" stroke="black" stroke-width="2" stroke-linejoin="round" stroke-linecap="round" />
<line x1="165.65" y1="157.05" x2="182.48" y2="141.87" stroke="black" stroke-width="2" stroke-linejoin="round" stroke-linecap="round" />
<line x1="182.48" y1="141.87" x2="177.67" y2="119.61" stroke="black" stroke-width="2" stroke-linejoin="round" stroke-linecap="round" />
<line x1="177.19" y1="139.29" x2="173.92" y2="124.15" stroke="black" stroke-width="2" stroke-linejoin="round" stroke-linecap="round" />
<line x1="177.67" y1="119.61" x2="156.02" y2="112.51" stroke="black" stroke-width="2" stroke-linejoin="round" stroke-linecap="round" />
<line x1="156.02" y1="112.51" x2="139.24" y2="127.91" stroke="black" stroke-width="2" stroke-linejoin="round" stroke-linecap="round" />
<line x1="156.46" y1="118.39" x2="145.05" y2="128.86" stroke="black" stroke-width="2" stroke-linejoin="round" stroke-linecap="round" />
<line x1="139.24" y1="127.91" x2="144.05" y2="150.18" stroke="black" stroke-width="2" stroke-linejoin="round" stroke-linecap="round" />
<line x1="128.44" y1="124.48" x2="139.24" y2="127.91" stroke="black" stroke-width="2" stroke-linejoin="round" stroke-linecap="round" />
<line x1="128.44" y1="124.48" x2="124.17" y2="123.12" stroke="red" stroke-width="2" stroke-linejoin="round" stroke-linecap="round" />
<line x1="115.22" y1="109.98" x2="116.17" y2="114.35" stroke="red" stroke-width="2" stroke-linejoin="round" stroke-linecap="round" />
<line x1="115.22" y1="109.98" x2="112.79" y2="98.91" stroke="black" stroke-width="2" stroke-linejoin="round" stroke-linecap="round" />
<line x1="112.79" y1="98.91" x2="91.19" y2="92.04" stroke="black" stroke-width="2" stroke-linejoin="round" stroke-linecap="round" />
<line x1="91.19" y1="92.04" x2="74.34" y2="107.37" stroke="black" stroke-width="2" stroke-linejoin="round" stroke-linecap="round" />
<line x1="85.38" y1="91.07" x2="73.92" y2="101.49" stroke="black" stroke-width="2" stroke-linejoin="round" stroke-linecap="round" />
<line x1="91.19" y1="92.04" x2="86.31" y2="69.91" stroke="black" stroke-width="2" stroke-linejoin="round" stroke-linecap="round" />
<line x1="86.31" y1="69.91" x2="64.74" y2="62.95" stroke="black" stroke-width="2" stroke-linejoin="round" stroke-linecap="round" />
<line x1="81.44" y1="73.20" x2="66.77" y2="68.47" stroke="black" stroke-width="2" stroke-linejoin="round" stroke-linecap="round" />
<line x1="64.74" y1="62.95" x2="47.89" y2="78.28" stroke="black" stroke-width="2" stroke-linejoin="round" stroke-linecap="round" />
<line x1="47.89" y1="78.28" x2="52.60" y2="100.56" stroke="black" stroke-width="2" stroke-linejoin="round" stroke-linecap="round" />
<line x1="53.17" y1="80.89" x2="56.37" y2="96.04" stroke="black" stroke-width="2" stroke-linejoin="round" stroke-linecap="round" />
<line x1="52.60" y1="100.56" x2="74.34" y2="107.37" stroke="black" stroke-width="2" stroke-linejoin="round" stroke-linecap="round" />
<line x1="76.78" y1="118.43" x2="74.34" y2="107.37" stroke="black" stroke-width="2" stroke-linejoin="round" stroke-linecap="round" />
<line x1="76.78" y1="118.43" x2="77.58" y2="122.06" stroke="#82d700" stroke-width="2" stroke-linejoin="round" stroke-linecap="round" />
<line x1="37.10" y1="74.80" x2="47.89" y2="78.28" stroke="black" stroke-width="2" stroke-linejoin="round" stroke-linecap="round" />
<line x1="37.10" y1="74.80" x2="33.57" y2="73.66" stroke="#82d700" stroke-width="2" stroke-linejoin="round" stroke-linecap="round" />
<line x1="177.67" y1="119.61" x2="194.50" y2="104.44" stroke="black" stroke-width="2" stroke-linejoin="round" stroke-linecap="round" />
<line x1="194.50" y1="104.44" x2="216.06" y2="111.43" stroke="black" stroke-width="2" stroke-linejoin="round" stroke-linecap="round" />
<line x1="196.52" y1="109.96" x2="211.18" y2="114.71" stroke="black" stroke-width="2" stroke-linejoin="round" stroke-linecap="round" />
<line x1="225.21" y1="104.73" x2="216.06" y2="111.43" stroke="black" stroke-width="2" stroke-linejoin="round" stroke-linecap="round" />
<line x1="225.21" y1="104.73" x2="229.44" y2="101.64" stroke="#ebc80a" stroke-width="2" stroke-linejoin="round" stroke-linecap="round" />
<line x1="216.06" y1="111.43" x2="223.00" y2="133.00" stroke="black" stroke-width="2" stroke-linejoin="round" stroke-linecap="round" />
<line x1="214.46" y1="140.80" x2="221.14" y2="131.64" stroke="black" stroke-width="2" stroke-linejoin="round" stroke-linecap="round" />
<line x1="214.46" y1="140.80" x2="211.83" y2="144.42" stroke="red" stroke-width="2" stroke-linejoin="round" stroke-linecap="round" />
<line x1="218.20" y1="143.52" x2="224.87" y2="134.36" stroke="black" stroke-width="2" stroke-linejoin="round" stroke-linecap="round" />
<line x1="218.20" y1="143.52" x2="215.57" y2="147.14" stroke="red" stroke-width="2" stroke-linejoin="round" stroke-linecap="round" />
<line x1="234.35" y1="133.00" x2="223.00" y2="133.00" stroke="black" stroke-width="2" stroke-linejoin="round" stroke-linecap="round" />
<line x1="234.35" y1="133.00" x2="239.61" y2="133.00" stroke="blue" stroke-width="2" stroke-linejoin="round" stroke-linecap="round" />
<line x1="249.23" y1="122.22" x2="247.60" y2="127.21" stroke="blue" stroke-width="2" stroke-linejoin="round" stroke-linecap="round" />
<line x1="249.23" y1="122.22" x2="252.77" y2="111.43" stroke="black" stroke-width="2" stroke-linejoin="round" stroke-linecap="round" />
<line x1="264.26" y1="110.15" x2="253.48" y2="113.63" stroke="black" stroke-width="2" stroke-linejoin="round" stroke-linecap="round" />
<line x1="264.26" y1="110.15" x2="268.52" y2="108.77" stroke="red" stroke-width="2" stroke-linejoin="round" stroke-linecap="round" />
<line x1="262.84" y1="105.74" x2="252.05" y2="109.23" stroke="black" stroke-width="2" stroke-linejoin="round" stroke-linecap="round" />
<line x1="262.84" y1="105.74" x2="267.09" y2="104.37" stroke="red" stroke-width="2" stroke-linejoin="round" stroke-linecap="round" />
<line x1="243.56" y1="104.73" x2="252.77" y2="111.43" stroke="black" stroke-width="2" stroke-linejoin="round" stroke-linecap="round" />
<line x1="243.56" y1="104.73" x2="239.28" y2="101.62" stroke="#ebc80a" stroke-width="2" stroke-linejoin="round" stroke-linecap="round" />
<text x="117.64" y="124.02" fill="red" font-family="Arial" font-size="9" font-style="normal" font-weight="normal" text-anchor="middle">  O </text>
<text x="79.22" y="132.47" fill="#82d700" font-family="Arial" font-size="9" font-style="normal" font-weight="normal" text-anchor="middle">  Cl </text>
<text x="26.32" y="74.29" fill="#82d700" font-family="Arial" font-size="9" font-style="normal" font-weight="normal" text-anchor="middle">  Cl </text>
<text x="209.66" y="154.29" fill="red" font-family="Arial" font-size="9" font-style="normal" font-weight="normal" text-anchor="middle">  O </text>
<text x="245.70" y="135.97" fill="blue" font-family="Arial" font-size="9" font-style="normal" font-weight="normal" text-anchor="middle">  N </text>
<text x="245.70" y="143.17" fill="blue" font-family="Arial" font-size="9" font-style="normal" font-weight="normal" text-anchor="middle">  H </text>
<text x="274.33" y="107.43" fill="red" font-family="Arial" font-size="9" font-style="normal" font-weight="normal" text-anchor="middle">  O </text>
<text x="234.35" y="101.01" fill="#ebc80a" font-family="Arial" font-size="9" font-style="normal" font-weight="normal" text-anchor="middle">  S </text>
<text x="150.00" y="21.67" fill="black" font-family="Arial" font-size="20" font-style="normal" font-weight="normal" text-anchor="middle">  SM20 </text>
</svg>
