<?xml version="1.0" encoding="UTF-8"?>
<!DOCTYPE svg PUBLIC "-//W3C//DTD SVG 1.1//EN"
  "http://www.w3.org/Graphics/SVG/1.1/DTD/svg11.dtd">
<svg xmlns="http://www.w3.org/2000/svg" xmlns:xlink="http://www.w3.org/1999/xlink"   viewBox="0.00 0.00 300.00 200.00">
<!-- Created by OpenEye Scientific Software -->
<!-- Creation Date Tue Jun  5 16:25:04 2018 -->
<rect width="300.00" height="200.00" fill="white" />
<line x1="59.00" y1="124.96" x2="58.87" y2="147.61" stroke="black" stroke-width="2" stroke-linejoin="round" stroke-linecap="round" />
<line x1="63.61" y1="128.61" x2="63.52" y2="144.02" stroke="black" stroke-width="2" stroke-linejoin="round" stroke-linecap="round" />
<line x1="59.00" y1="124.96" x2="78.62" y2="113.63" stroke="black" stroke-width="2" stroke-linejoin="round" stroke-linecap="round" />
<line x1="78.62" y1="113.63" x2="98.31" y2="125.08" stroke="black" stroke-width="2" stroke-linejoin="round" stroke-linecap="round" />
<line x1="79.45" y1="119.46" x2="92.84" y2="127.24" stroke="black" stroke-width="2" stroke-linejoin="round" stroke-linecap="round" />
<line x1="98.31" y1="125.08" x2="98.38" y2="147.85" stroke="black" stroke-width="2" stroke-linejoin="round" stroke-linecap="round" />
<line x1="98.38" y1="147.85" x2="78.56" y2="159.06" stroke="black" stroke-width="2" stroke-linejoin="round" stroke-linecap="round" />
<line x1="92.93" y1="145.61" x2="79.45" y2="153.24" stroke="black" stroke-width="2" stroke-linejoin="round" stroke-linecap="round" />
<line x1="78.56" y1="159.06" x2="58.87" y2="147.61" stroke="black" stroke-width="2" stroke-linejoin="round" stroke-linecap="round" />
<line x1="78.49" y1="170.38" x2="78.56" y2="159.06" stroke="black" stroke-width="2" stroke-linejoin="round" stroke-linecap="round" />
<line x1="78.49" y1="170.38" x2="78.47" y2="173.51" stroke="#a00" stroke-width="2" stroke-linejoin="round" stroke-linecap="round" />
<line x1="108.12" y1="119.41" x2="98.31" y2="125.08" stroke="black" stroke-width="2" stroke-linejoin="round" stroke-linecap="round" />
<line x1="108.12" y1="119.41" x2="112.65" y2="116.80" stroke="blue" stroke-width="2" stroke-linejoin="round" stroke-linecap="round" />
<line x1="117.93" y1="102.43" x2="117.93" y2="107.66" stroke="blue" stroke-width="2" stroke-linejoin="round" stroke-linecap="round" />
<line x1="117.93" y1="102.43" x2="117.93" y2="91.10" stroke="black" stroke-width="2" stroke-linejoin="round" stroke-linecap="round" />
<line x1="127.75" y1="85.47" x2="117.93" y2="91.10" stroke="black" stroke-width="2" stroke-linejoin="round" stroke-linecap="round" />
<line x1="127.75" y1="85.47" x2="132.29" y2="82.86" stroke="blue" stroke-width="2" stroke-linejoin="round" stroke-linecap="round" />
<line x1="125.45" y1="81.45" x2="118.77" y2="85.29" stroke="black" stroke-width="2" stroke-linejoin="round" stroke-linecap="round" />
<line x1="125.45" y1="81.45" x2="132.13" y2="77.62" stroke="blue" stroke-width="2" stroke-linejoin="round" stroke-linecap="round" />
<line x1="117.93" y1="91.10" x2="98.28" y2="79.83" stroke="black" stroke-width="2" stroke-linejoin="round" stroke-linecap="round" />
<line x1="98.28" y1="79.83" x2="98.28" y2="57.06" stroke="black" stroke-width="2" stroke-linejoin="round" stroke-linecap="round" />
<line x1="102.90" y1="76.19" x2="102.90" y2="60.70" stroke="black" stroke-width="2" stroke-linejoin="round" stroke-linecap="round" />
<line x1="108.10" y1="51.31" x2="98.28" y2="57.06" stroke="black" stroke-width="2" stroke-linejoin="round" stroke-linecap="round" />
<line x1="108.10" y1="51.31" x2="112.67" y2="48.64" stroke="blue" stroke-width="2" stroke-linejoin="round" stroke-linecap="round" />
<line x1="127.75" y1="51.31" x2="123.19" y2="48.64" stroke="blue" stroke-width="2" stroke-linejoin="round" stroke-linecap="round" />
<line x1="127.75" y1="51.31" x2="137.58" y2="57.06" stroke="black" stroke-width="2" stroke-linejoin="round" stroke-linecap="round" />
<line x1="125.42" y1="55.30" x2="118.73" y2="51.39" stroke="blue" stroke-width="2" stroke-linejoin="round" stroke-linecap="round" />
<line x1="125.42" y1="55.30" x2="132.10" y2="59.21" stroke="black" stroke-width="2" stroke-linejoin="round" stroke-linecap="round" />
<line x1="137.58" y1="68.45" x2="137.58" y2="57.06" stroke="black" stroke-width="2" stroke-linejoin="round" stroke-linecap="round" />
<line x1="137.58" y1="68.45" x2="137.58" y2="73.74" stroke="blue" stroke-width="2" stroke-linejoin="round" stroke-linecap="round" />
<line x1="147.40" y1="51.43" x2="137.58" y2="57.06" stroke="black" stroke-width="2" stroke-linejoin="round" stroke-linecap="round" />
<line x1="147.40" y1="51.43" x2="151.94" y2="48.82" stroke="blue" stroke-width="2" stroke-linejoin="round" stroke-linecap="round" />
<line x1="167.02" y1="51.48" x2="162.50" y2="48.86" stroke="blue" stroke-width="2" stroke-linejoin="round" stroke-linecap="round" />
<line x1="167.02" y1="51.48" x2="176.81" y2="57.18" stroke="black" stroke-width="2" stroke-linejoin="round" stroke-linecap="round" />
<line x1="176.81" y1="57.18" x2="196.53" y2="45.79" stroke="black" stroke-width="2" stroke-linejoin="round" stroke-linecap="round" />
<line x1="182.28" y1="59.36" x2="195.69" y2="51.62" stroke="black" stroke-width="2" stroke-linejoin="round" stroke-linecap="round" />
<line x1="176.81" y1="57.18" x2="176.68" y2="79.95" stroke="black" stroke-width="2" stroke-linejoin="round" stroke-linecap="round" />
<line x1="176.68" y1="79.95" x2="196.26" y2="91.33" stroke="black" stroke-width="2" stroke-linejoin="round" stroke-linecap="round" />
<line x1="182.13" y1="77.77" x2="195.45" y2="85.51" stroke="black" stroke-width="2" stroke-linejoin="round" stroke-linecap="round" />
<line x1="196.26" y1="91.33" x2="215.98" y2="80.18" stroke="black" stroke-width="2" stroke-linejoin="round" stroke-linecap="round" />
<line x1="215.98" y1="80.18" x2="216.11" y2="57.41" stroke="black" stroke-width="2" stroke-linejoin="round" stroke-linecap="round" />
<line x1="211.37" y1="76.51" x2="211.47" y2="61.02" stroke="black" stroke-width="2" stroke-linejoin="round" stroke-linecap="round" />
<line x1="216.11" y1="57.41" x2="196.53" y2="45.79" stroke="black" stroke-width="2" stroke-linejoin="round" stroke-linecap="round" />
<line x1="225.97" y1="51.83" x2="216.11" y2="57.41" stroke="black" stroke-width="2" stroke-linejoin="round" stroke-linecap="round" />
<line x1="225.97" y1="51.83" x2="228.69" y2="50.29" stroke="#a00" stroke-width="2" stroke-linejoin="round" stroke-linecap="round" />
<line x1="88.47" y1="85.51" x2="98.28" y2="79.83" stroke="black" stroke-width="2" stroke-linejoin="round" stroke-linecap="round" />
<line x1="88.47" y1="85.51" x2="83.59" y2="88.34" stroke="#00cd00" stroke-width="2" stroke-linejoin="round" stroke-linecap="round" />
<text x="78.42" y="184.68" fill="#a00" font-family="Arial" font-size="9" font-style="normal" font-weight="normal" text-anchor="middle">  Br </text>
<text x="117.93" y="116.72" fill="blue" font-family="Arial" font-size="9" font-style="normal" font-weight="normal" text-anchor="middle">  N </text>
<text x="124.23" y="116.72" fill="blue" font-family="Arial" font-size="9" font-style="normal" font-weight="normal" text-anchor="middle">  H </text>
<text x="117.93" y="48.53" fill="blue" font-family="Arial" font-size="9" font-style="normal" font-weight="normal" text-anchor="middle">  N </text>
<text x="137.58" y="82.80" fill="blue" font-family="Arial" font-size="9" font-style="normal" font-weight="normal" text-anchor="middle">  N </text>
<text x="157.23" y="48.76" fill="blue" font-family="Arial" font-size="9" font-style="normal" font-weight="normal" text-anchor="middle">  N </text>
<text x="157.23" y="41.56" fill="blue" font-family="Arial" font-size="9" font-style="normal" font-weight="normal" text-anchor="middle">  H </text>
<text x="235.83" y="49.23" fill="#a00" font-family="Arial" font-size="9" font-style="normal" font-weight="normal" text-anchor="middle">  Br </text>
<text x="78.67" y="94.16" fill="#00cd00" font-family="Arial" font-size="9" font-style="normal" font-weight="normal" text-anchor="middle">  F </text>
<text x="150.00" y="21.67" fill="black" font-family="Arial" font-size="20" font-style="normal" font-weight="normal" text-anchor="middle">  SM21 </text>
</svg>
