<?xml version="1.0" encoding="UTF-8"?>
<!DOCTYPE svg PUBLIC "-//W3C//DTD SVG 1.1//EN"
  "http://www.w3.org/Graphics/SVG/1.1/DTD/svg11.dtd">
<svg xmlns="http://www.w3.org/2000/svg" xmlns:xlink="http://www.w3.org/1999/xlink"   viewBox="0.00 0.00 300.00 200.00">
<!-- Created by OpenEye Scientific Software -->
<!-- Creation Date Tue Jun  5 16:25:04 2018 -->
<rect width="300.00" height="200.00" fill="white" />
<line x1="21.30" y1="145.45" x2="39.42" y2="155.81" stroke="black" stroke-width="2" stroke-linejoin="round" stroke-linecap="round" />
<line x1="48.44" y1="150.55" x2="39.42" y2="155.81" stroke="black" stroke-width="2" stroke-linejoin="round" stroke-linecap="round" />
<line x1="48.44" y1="150.55" x2="51.53" y2="148.74" stroke="red" stroke-width="2" stroke-linejoin="round" stroke-linecap="round" />
<line x1="66.52" y1="150.47" x2="63.41" y2="148.69" stroke="red" stroke-width="2" stroke-linejoin="round" stroke-linecap="round" />
<line x1="66.52" y1="150.47" x2="75.58" y2="155.65" stroke="black" stroke-width="2" stroke-linejoin="round" stroke-linecap="round" />
<line x1="73.46" y1="166.10" x2="73.41" y2="155.66" stroke="black" stroke-width="2" stroke-linejoin="round" stroke-linecap="round" />
<line x1="73.46" y1="166.10" x2="73.47" y2="169.68" stroke="red" stroke-width="2" stroke-linejoin="round" stroke-linecap="round" />
<line x1="77.80" y1="166.08" x2="77.75" y2="155.64" stroke="black" stroke-width="2" stroke-linejoin="round" stroke-linecap="round" />
<line x1="77.80" y1="166.08" x2="77.81" y2="169.66" stroke="red" stroke-width="2" stroke-linejoin="round" stroke-linecap="round" />
<line x1="75.58" y1="155.65" x2="93.61" y2="145.13" stroke="black" stroke-width="2" stroke-linejoin="round" stroke-linecap="round" />
<line x1="93.61" y1="145.13" x2="93.55" y2="124.15" stroke="black" stroke-width="2" stroke-linejoin="round" stroke-linecap="round" />
<line x1="97.94" y1="141.76" x2="97.90" y2="127.49" stroke="black" stroke-width="2" stroke-linejoin="round" stroke-linecap="round" />
<line x1="93.61" y1="145.13" x2="111.75" y2="155.46" stroke="black" stroke-width="2" stroke-linejoin="round" stroke-linecap="round" />
<line x1="111.75" y1="155.46" x2="129.83" y2="145.02" stroke="black" stroke-width="2" stroke-linejoin="round" stroke-linecap="round" />
<line x1="112.47" y1="150.04" x2="124.77" y2="142.94" stroke="black" stroke-width="2" stroke-linejoin="round" stroke-linecap="round" />
<line x1="129.83" y1="145.02" x2="129.77" y2="124.04" stroke="black" stroke-width="2" stroke-linejoin="round" stroke-linecap="round" />
<line x1="129.77" y1="124.04" x2="111.63" y2="113.50" stroke="black" stroke-width="2" stroke-linejoin="round" stroke-linecap="round" />
<line x1="124.68" y1="126.11" x2="112.35" y2="118.94" stroke="black" stroke-width="2" stroke-linejoin="round" stroke-linecap="round" />
<line x1="111.63" y1="113.50" x2="93.55" y2="124.15" stroke="black" stroke-width="2" stroke-linejoin="round" stroke-linecap="round" />
<line x1="138.81" y1="118.82" x2="129.77" y2="124.04" stroke="black" stroke-width="2" stroke-linejoin="round" stroke-linecap="round" />
<line x1="138.81" y1="118.82" x2="142.57" y2="116.65" stroke="blue" stroke-width="2" stroke-linejoin="round" stroke-linecap="round" />
<line x1="147.85" y1="103.17" x2="147.85" y2="107.51" stroke="blue" stroke-width="2" stroke-linejoin="round" stroke-linecap="round" />
<line x1="147.85" y1="103.17" x2="147.85" y2="92.73" stroke="black" stroke-width="2" stroke-linejoin="round" stroke-linecap="round" />
<line x1="156.90" y1="87.54" x2="147.85" y2="92.73" stroke="black" stroke-width="2" stroke-linejoin="round" stroke-linecap="round" />
<line x1="156.90" y1="87.54" x2="160.67" y2="85.38" stroke="blue" stroke-width="2" stroke-linejoin="round" stroke-linecap="round" />
<line x1="154.74" y1="83.77" x2="148.59" y2="87.30" stroke="black" stroke-width="2" stroke-linejoin="round" stroke-linecap="round" />
<line x1="154.74" y1="83.77" x2="160.90" y2="80.24" stroke="blue" stroke-width="2" stroke-linejoin="round" stroke-linecap="round" />
<line x1="147.85" y1="92.73" x2="129.74" y2="82.34" stroke="black" stroke-width="2" stroke-linejoin="round" stroke-linecap="round" />
<line x1="129.74" y1="82.34" x2="129.74" y2="61.36" stroke="black" stroke-width="2" stroke-linejoin="round" stroke-linecap="round" />
<line x1="134.08" y1="78.99" x2="134.08" y2="64.72" stroke="black" stroke-width="2" stroke-linejoin="round" stroke-linecap="round" />
<line x1="138.79" y1="56.06" x2="129.74" y2="61.36" stroke="black" stroke-width="2" stroke-linejoin="round" stroke-linecap="round" />
<line x1="138.79" y1="56.06" x2="142.59" y2="53.84" stroke="blue" stroke-width="2" stroke-linejoin="round" stroke-linecap="round" />
<line x1="156.90" y1="56.06" x2="153.11" y2="53.84" stroke="blue" stroke-width="2" stroke-linejoin="round" stroke-linecap="round" />
<line x1="156.90" y1="56.06" x2="165.96" y2="61.36" stroke="black" stroke-width="2" stroke-linejoin="round" stroke-linecap="round" />
<line x1="154.71" y1="59.81" x2="148.55" y2="56.20" stroke="blue" stroke-width="2" stroke-linejoin="round" stroke-linecap="round" />
<line x1="154.71" y1="59.81" x2="160.87" y2="63.41" stroke="black" stroke-width="2" stroke-linejoin="round" stroke-linecap="round" />
<line x1="165.96" y1="71.85" x2="165.96" y2="61.36" stroke="black" stroke-width="2" stroke-linejoin="round" stroke-linecap="round" />
<line x1="165.96" y1="71.85" x2="165.96" y2="76.25" stroke="blue" stroke-width="2" stroke-linejoin="round" stroke-linecap="round" />
<line x1="175.01" y1="56.17" x2="165.96" y2="61.36" stroke="black" stroke-width="2" stroke-linejoin="round" stroke-linecap="round" />
<line x1="175.01" y1="56.17" x2="178.78" y2="54.01" stroke="blue" stroke-width="2" stroke-linejoin="round" stroke-linecap="round" />
<line x1="193.09" y1="56.22" x2="189.33" y2="54.04" stroke="blue" stroke-width="2" stroke-linejoin="round" stroke-linecap="round" />
<line x1="193.09" y1="56.22" x2="202.11" y2="61.47" stroke="black" stroke-width="2" stroke-linejoin="round" stroke-linecap="round" />
<line x1="202.11" y1="61.47" x2="201.99" y2="82.45" stroke="black" stroke-width="2" stroke-linejoin="round" stroke-linecap="round" />
<line x1="206.43" y1="64.85" x2="206.35" y2="79.12" stroke="black" stroke-width="2" stroke-linejoin="round" stroke-linecap="round" />
<line x1="202.11" y1="61.47" x2="220.28" y2="50.98" stroke="black" stroke-width="2" stroke-linejoin="round" stroke-linecap="round" />
<line x1="220.28" y1="50.98" x2="238.33" y2="61.47" stroke="black" stroke-width="2" stroke-linejoin="round" stroke-linecap="round" />
<line x1="220.99" y1="56.41" x2="233.26" y2="63.54" stroke="black" stroke-width="2" stroke-linejoin="round" stroke-linecap="round" />
<line x1="238.33" y1="61.47" x2="238.39" y2="82.34" stroke="black" stroke-width="2" stroke-linejoin="round" stroke-linecap="round" />
<line x1="238.39" y1="82.34" x2="220.22" y2="92.83" stroke="black" stroke-width="2" stroke-linejoin="round" stroke-linecap="round" />
<line x1="233.32" y1="80.26" x2="220.96" y2="87.40" stroke="black" stroke-width="2" stroke-linejoin="round" stroke-linecap="round" />
<line x1="220.22" y1="92.83" x2="201.99" y2="82.45" stroke="black" stroke-width="2" stroke-linejoin="round" stroke-linecap="round" />
<line x1="238.39" y1="82.34" x2="256.49" y2="92.75" stroke="black" stroke-width="2" stroke-linejoin="round" stroke-linecap="round" />
<line x1="266.61" y1="89.40" x2="257.57" y2="94.63" stroke="black" stroke-width="2" stroke-linejoin="round" stroke-linecap="round" />
<line x1="266.61" y1="89.40" x2="269.71" y2="87.60" stroke="red" stroke-width="2" stroke-linejoin="round" stroke-linecap="round" />
<line x1="264.43" y1="85.64" x2="255.40" y2="90.87" stroke="black" stroke-width="2" stroke-linejoin="round" stroke-linecap="round" />
<line x1="264.43" y1="85.64" x2="267.53" y2="83.85" stroke="red" stroke-width="2" stroke-linejoin="round" stroke-linecap="round" />
<line x1="256.50" y1="103.19" x2="256.49" y2="92.75" stroke="black" stroke-width="2" stroke-linejoin="round" stroke-linecap="round" />
<line x1="256.50" y1="103.19" x2="256.51" y2="106.77" stroke="red" stroke-width="2" stroke-linejoin="round" stroke-linecap="round" />
<line x1="265.56" y1="118.83" x2="262.46" y2="117.05" stroke="red" stroke-width="2" stroke-linejoin="round" stroke-linecap="round" />
<line x1="265.56" y1="118.83" x2="274.61" y2="124.04" stroke="black" stroke-width="2" stroke-linejoin="round" stroke-linecap="round" />
<line x1="274.61" y1="124.04" x2="274.64" y2="144.91" stroke="black" stroke-width="2" stroke-linejoin="round" stroke-linecap="round" />
<line x1="129.74" y1="61.36" x2="111.63" y2="50.98" stroke="black" stroke-width="2" stroke-linejoin="round" stroke-linecap="round" />
<text x="57.46" y="148.26" fill="red" font-family="Arial" font-size="9" font-style="normal" font-weight="normal" text-anchor="middle">  O </text>
<text x="75.67" y="179.49" fill="red" font-family="Arial" font-size="9" font-style="normal" font-weight="normal" text-anchor="middle">  O </text>
<text x="147.85" y="116.57" fill="blue" font-family="Arial" font-size="9" font-style="normal" font-weight="normal" text-anchor="middle">  N </text>
<text x="154.15" y="116.57" fill="blue" font-family="Arial" font-size="9" font-style="normal" font-weight="normal" text-anchor="middle">  H </text>
<text x="147.85" y="53.73" fill="blue" font-family="Arial" font-size="9" font-style="normal" font-weight="normal" text-anchor="middle">  N </text>
<text x="165.96" y="85.31" fill="blue" font-family="Arial" font-size="9" font-style="normal" font-weight="normal" text-anchor="middle">  N </text>
<text x="184.06" y="53.95" fill="blue" font-family="Arial" font-size="9" font-style="normal" font-weight="normal" text-anchor="middle">  N </text>
<text x="184.06" y="46.75" fill="blue" font-family="Arial" font-size="9" font-style="normal" font-weight="normal" text-anchor="middle">  H </text>
<text x="274.55" y="85.26" fill="red" font-family="Arial" font-size="9" font-style="normal" font-weight="normal" text-anchor="middle">  O </text>
<text x="256.52" y="116.60" fill="red" font-family="Arial" font-size="9" font-style="normal" font-weight="normal" text-anchor="middle">  O </text>
<text x="150.00" y="21.67" fill="black" font-family="Arial" font-size="20" font-style="normal" font-weight="normal" text-anchor="middle">  SM23 </text>
</svg>
