<?xml version="1.0" encoding="UTF-8"?>
<!DOCTYPE svg PUBLIC "-//W3C//DTD SVG 1.1//EN"
  "http://www.w3.org/Graphics/SVG/1.1/DTD/svg11.dtd">
<svg xmlns="http://www.w3.org/2000/svg" xmlns:xlink="http://www.w3.org/1999/xlink"   viewBox="0.00 0.00 300.00 200.00">
<!-- Created by OpenEye Scientific Software -->
<!-- Creation Date Tue Jun  5 16:25:04 2018 -->
<rect width="300.00" height="200.00" fill="white" />
<line x1="144.92" y1="177.77" x2="137.11" y2="186.36" stroke="black" stroke-width="2" stroke-linejoin="round" stroke-linecap="round" />
<line x1="144.92" y1="177.77" x2="147.75" y2="174.65" stroke="red" stroke-width="2" stroke-linejoin="round" stroke-linecap="round" />
<line x1="149.19" y1="158.11" x2="150.47" y2="162.13" stroke="red" stroke-width="2" stroke-linejoin="round" stroke-linecap="round" />
<line x1="149.19" y1="158.11" x2="145.65" y2="147.05" stroke="black" stroke-width="2" stroke-linejoin="round" stroke-linecap="round" />
<line x1="145.65" y1="147.05" x2="161.39" y2="129.82" stroke="black" stroke-width="2" stroke-linejoin="round" stroke-linecap="round" />
<line x1="144.69" y1="141.12" x2="155.39" y2="129.40" stroke="black" stroke-width="2" stroke-linejoin="round" stroke-linecap="round" />
<line x1="145.65" y1="147.05" x2="122.82" y2="142.17" stroke="black" stroke-width="2" stroke-linejoin="round" stroke-linecap="round" />
<line x1="122.82" y1="142.17" x2="115.74" y2="120.05" stroke="black" stroke-width="2" stroke-linejoin="round" stroke-linecap="round" />
<line x1="126.18" y1="137.19" x2="121.36" y2="122.15" stroke="black" stroke-width="2" stroke-linejoin="round" stroke-linecap="round" />
<line x1="115.74" y1="120.05" x2="131.26" y2="102.77" stroke="black" stroke-width="2" stroke-linejoin="round" stroke-linecap="round" />
<line x1="131.26" y1="102.77" x2="154.08" y2="107.66" stroke="black" stroke-width="2" stroke-linejoin="round" stroke-linecap="round" />
<line x1="133.92" y1="108.16" x2="149.44" y2="111.48" stroke="black" stroke-width="2" stroke-linejoin="round" stroke-linecap="round" />
<line x1="154.08" y1="107.66" x2="161.39" y2="129.82" stroke="black" stroke-width="2" stroke-linejoin="round" stroke-linecap="round" />
<line x1="131.26" y1="102.77" x2="124.08" y2="80.68" stroke="black" stroke-width="2" stroke-linejoin="round" stroke-linecap="round" />
<line x1="124.08" y1="80.68" x2="137.83" y2="61.76" stroke="black" stroke-width="2" stroke-linejoin="round" stroke-linecap="round" />
<line x1="122.47" y1="74.88" x2="131.81" y2="62.01" stroke="black" stroke-width="2" stroke-linejoin="round" stroke-linecap="round" />
<line x1="124.08" y1="80.68" x2="101.84" y2="73.45" stroke="black" stroke-width="2" stroke-linejoin="round" stroke-linecap="round" />
<line x1="101.84" y1="73.45" x2="101.84" y2="50.06" stroke="black" stroke-width="2" stroke-linejoin="round" stroke-linecap="round" />
<line x1="97.12" y1="69.71" x2="97.12" y2="53.81" stroke="black" stroke-width="2" stroke-linejoin="round" stroke-linecap="round" />
<line x1="101.84" y1="73.45" x2="81.68" y2="84.98" stroke="black" stroke-width="2" stroke-linejoin="round" stroke-linecap="round" />
<line x1="71.60" y1="79.20" x2="81.68" y2="84.98" stroke="black" stroke-width="2" stroke-linejoin="round" stroke-linecap="round" />
<line x1="71.60" y1="79.20" x2="67.20" y2="76.68" stroke="blue" stroke-width="2" stroke-linejoin="round" stroke-linecap="round" />
<line x1="73.95" y1="75.11" x2="80.80" y2="79.04" stroke="black" stroke-width="2" stroke-linejoin="round" stroke-linecap="round" />
<line x1="73.95" y1="75.11" x2="67.09" y2="71.18" stroke="blue" stroke-width="2" stroke-linejoin="round" stroke-linecap="round" />
<line x1="61.52" y1="61.74" x2="61.52" y2="66.87" stroke="blue" stroke-width="2" stroke-linejoin="round" stroke-linecap="round" />
<line x1="61.52" y1="61.74" x2="61.52" y2="50.06" stroke="black" stroke-width="2" stroke-linejoin="round" stroke-linecap="round" />
<line x1="71.60" y1="44.17" x2="61.52" y2="50.06" stroke="black" stroke-width="2" stroke-linejoin="round" stroke-linecap="round" />
<line x1="71.60" y1="44.17" x2="76.03" y2="41.58" stroke="blue" stroke-width="2" stroke-linejoin="round" stroke-linecap="round" />
<line x1="73.98" y1="48.24" x2="67.13" y2="52.25" stroke="black" stroke-width="2" stroke-linejoin="round" stroke-linecap="round" />
<line x1="73.98" y1="48.24" x2="80.84" y2="44.22" stroke="blue" stroke-width="2" stroke-linejoin="round" stroke-linecap="round" />
<line x1="91.76" y1="44.17" x2="87.33" y2="41.58" stroke="blue" stroke-width="2" stroke-linejoin="round" stroke-linecap="round" />
<line x1="91.76" y1="44.17" x2="101.84" y2="50.06" stroke="black" stroke-width="2" stroke-linejoin="round" stroke-linecap="round" />
<line x1="112.96" y1="46.45" x2="101.84" y2="50.06" stroke="black" stroke-width="2" stroke-linejoin="round" stroke-linecap="round" />
<line x1="112.96" y1="46.45" x2="117.05" y2="45.12" stroke="red" stroke-width="2" stroke-linejoin="round" stroke-linecap="round" />
<line x1="130.96" y1="52.30" x2="128.43" y2="48.82" stroke="red" stroke-width="2" stroke-linejoin="round" stroke-linecap="round" />
<line x1="130.96" y1="52.30" x2="137.83" y2="61.76" stroke="black" stroke-width="2" stroke-linejoin="round" stroke-linecap="round" />
<line x1="137.83" y1="61.76" x2="161.05" y2="61.76" stroke="black" stroke-width="2" stroke-linejoin="round" stroke-linecap="round" />
<line x1="161.05" y1="61.76" x2="172.75" y2="41.56" stroke="black" stroke-width="2" stroke-linejoin="round" stroke-linecap="round" />
<line x1="167.01" y1="60.89" x2="174.96" y2="47.15" stroke="black" stroke-width="2" stroke-linejoin="round" stroke-linecap="round" />
<line x1="161.05" y1="61.76" x2="172.70" y2="81.85" stroke="black" stroke-width="2" stroke-linejoin="round" stroke-linecap="round" />
<line x1="172.70" y1="81.85" x2="195.92" y2="81.95" stroke="black" stroke-width="2" stroke-linejoin="round" stroke-linecap="round" />
<line x1="176.43" y1="77.15" x2="192.22" y2="77.22" stroke="black" stroke-width="2" stroke-linejoin="round" stroke-linecap="round" />
<line x1="195.92" y1="81.95" x2="207.62" y2="61.75" stroke="black" stroke-width="2" stroke-linejoin="round" stroke-linecap="round" />
<line x1="207.62" y1="61.75" x2="196.10" y2="41.45" stroke="black" stroke-width="2" stroke-linejoin="round" stroke-linecap="round" />
<line x1="201.67" y1="60.83" x2="193.84" y2="47.03" stroke="black" stroke-width="2" stroke-linejoin="round" stroke-linecap="round" />
<line x1="196.10" y1="41.45" x2="172.75" y2="41.56" stroke="black" stroke-width="2" stroke-linejoin="round" stroke-linecap="round" />
<line x1="219.23" y1="61.80" x2="207.62" y2="61.75" stroke="black" stroke-width="2" stroke-linejoin="round" stroke-linecap="round" />
<line x1="219.23" y1="61.80" x2="223.45" y2="61.82" stroke="red" stroke-width="2" stroke-linejoin="round" stroke-linecap="round" />
<line x1="236.61" y1="71.93" x2="234.51" y2="68.27" stroke="red" stroke-width="2" stroke-linejoin="round" stroke-linecap="round" />
<line x1="236.61" y1="71.93" x2="242.37" y2="82.01" stroke="black" stroke-width="2" stroke-linejoin="round" stroke-linecap="round" />
<line x1="81.67" y1="96.60" x2="81.68" y2="84.98" stroke="black" stroke-width="2" stroke-linejoin="round" stroke-linecap="round" />
<line x1="81.67" y1="96.60" x2="81.67" y2="101.66" stroke="blue" stroke-width="2" stroke-linejoin="round" stroke-linecap="round" />
<line x1="71.61" y1="114.01" x2="75.99" y2="111.48" stroke="blue" stroke-width="2" stroke-linejoin="round" stroke-linecap="round" />
<line x1="71.61" y1="114.01" x2="61.55" y2="119.81" stroke="black" stroke-width="2" stroke-linejoin="round" stroke-linecap="round" />
<line x1="61.55" y1="119.81" x2="61.54" y2="143.03" stroke="black" stroke-width="2" stroke-linejoin="round" stroke-linecap="round" />
<line x1="71.59" y1="148.84" x2="61.54" y2="143.03" stroke="black" stroke-width="2" stroke-linejoin="round" stroke-linecap="round" />
<line x1="71.59" y1="148.84" x2="75.24" y2="150.95" stroke="red" stroke-width="2" stroke-linejoin="round" stroke-linecap="round" />
<text x="152.72" y="172.47" fill="red" font-family="Arial" font-size="10" font-style="normal" font-weight="normal" text-anchor="middle">  O </text>
<text x="61.52" y="76.72" fill="blue" font-family="Arial" font-size="10" font-style="normal" font-weight="normal" text-anchor="middle">  N </text>
<text x="81.68" y="41.57" fill="blue" font-family="Arial" font-size="10" font-style="normal" font-weight="normal" text-anchor="middle">  N </text>
<text x="124.08" y="46.14" fill="red" font-family="Arial" font-size="10" font-style="normal" font-weight="normal" text-anchor="middle">  O </text>
<text x="230.84" y="65.15" fill="red" font-family="Arial" font-size="10" font-style="normal" font-weight="normal" text-anchor="middle">  O </text>
<text x="81.67" y="111.51" fill="blue" font-family="Arial" font-size="10" font-style="normal" font-weight="normal" text-anchor="middle">  N </text>
<text x="88.67" y="111.51" fill="blue" font-family="Arial" font-size="10" font-style="normal" font-weight="normal" text-anchor="middle">  H </text>
<text x="81.64" y="157.95" fill="red" font-family="Arial" font-size="10" font-style="normal" font-weight="normal" text-anchor="middle">  O </text>
<text x="89.29" y="157.95" fill="red" font-family="Arial" font-size="10" font-style="normal" font-weight="normal" text-anchor="middle">  H </text>
<text x="150.00" y="21.67" fill="black" font-family="Arial" font-size="20" font-style="normal" font-weight="normal" text-anchor="middle">  SM24 </text>
</svg>
